<svg version="1.1" xmlns="http://www.w3.org/2000/svg" xmlns:xlink="http://www.w3.org/1999/xlink" width="820" height="252"><defs/><g><g transform="translate(-54,-22) scale(1,1)"><g><path fill="none" stroke="none"/><text fill="#000000" stroke="none" font-family="Arial" font-size="22px" font-style="normal" font-weight="normal" text-decoration="none" x="69" y="59">Overview Mobile Application</text></g></g><g transform="translate(-54,-22) scale(1,1)"><rect fill="#C0C0C0" stroke="none" x="79" y="103" width="57.599999999999994" height="15" opacity="0.2"/></g><g transform="translate(-54,-22) scale(1,1)"><rect fill="#C0C0C0" stroke="none" x="79" y="117" width="144" height="50" opacity="0.2"/></g><g transform="translate(-54,-22) scale(1,1)"><rect fill="#ffffff" stroke="none" x="72" y="111" width="144" height="49"/></g><g transform="translate(-54,-22) scale(1,1)"><path fill="none" stroke="#000000" d="M 72 111 L 216 111 L 216 160 L 72 160 L 72 111 Z Z" stroke-miterlimit="10"/></g><g transform="translate(-54,-22) scale(1,1)"><rect fill="#ffffff" stroke="none" x="72" y="96" width="57.599999999999994" height="15"/></g><g transform="translate(-54,-22) scale(1,1)"><path fill="none" stroke="#000000" d="M 72 96 L 129.6 96 L 129.6 111 L 72 111 L 72 96 Z Z" stroke-miterlimit="10"/></g><g transform="translate(-54,-22) scale(1,1)"><rect fill="#ffffff" stroke="none" x="72" y="110" width="144" height="50"/></g><g transform="translate(-54,-22) scale(1,1)"><path fill="none" stroke="#000000" d="M 72 110 L 216 110 L 216 160 L 72 160 L 72 110 Z Z" stroke-miterlimit="10"/></g><g transform="translate(-54,-22) scale(1,1)"><g><path fill="none" stroke="none"/><text fill="#000000" stroke="none" font-family="Arial" font-size="13px" font-style="normal" font-weight="bold" text-decoration="none" x="106.5" y="130.5">Mobile Client</text></g></g><g transform="translate(-54,-22) scale(1,1)"><rect fill="#C0C0C0" stroke="none" x="383" y="103" width="54.39999999999998" height="15" opacity="0.2"/></g><g transform="translate(-54,-22) scale(1,1)"><rect fill="#C0C0C0" stroke="none" x="383" y="117" width="136" height="50" opacity="0.2"/></g><g transform="translate(-54,-22) scale(1,1)"><rect fill="#ffffff" stroke="none" x="376" y="111" width="136" height="49"/></g><g transform="translate(-54,-22) scale(1,1)"><path fill="none" stroke="#000000" d="M 376 111 L 512 111 L 512 160 L 376 160 L 376 111 Z Z" stroke-miterlimit="10"/></g><g transform="translate(-54,-22) scale(1,1)"><rect fill="#ffffff" stroke="none" x="376" y="96" width="54.39999999999998" height="15"/></g><g transform="translate(-54,-22) scale(1,1)"><path fill="none" stroke="#000000" d="M 376 96 L 430.4 96 L 430.4 111 L 376 111 L 376 96 Z Z" stroke-miterlimit="10"/></g><g transform="translate(-54,-22) scale(1,1)"><rect fill="#ffffff" stroke="none" x="376" y="110" width="136" height="50"/></g><g transform="translate(-54,-22) scale(1,1)"><path fill="none" stroke="#000000" d="M 376 110 L 512 110 L 512 160 L 376 160 L 376 110 Z Z" stroke-miterlimit="10"/></g><g transform="translate(-54,-22) scale(1,1)"><g><path fill="none" stroke="none"/><text fill="#000000" stroke="none" font-family="Arial" font-size="13px" font-style="normal" font-weight="bold" text-decoration="none" x="404" y="130.5">Mobile Server</text></g></g><g transform="translate(-54,-22) scale(1,1)"><path fill="none" stroke="#000000" d="M 217 128 L 375 128" stroke-miterlimit="10" stroke-dasharray="3"/></g><g transform="translate(-54,-22) scale(1,1)"><path fill="none" stroke="#000000" d="M 364.83732514237585 132.209517756016 L 375 128 L 364.83732514237585 123.79048224398402" stroke-miterlimit="10"/></g><g transform="translate(-54,-22) scale(1,1)"><rect fill="#C0C0C0" stroke="none" x="655" y="191" width="86.39999999999998" height="15" opacity="0.2"/></g><g transform="translate(-54,-22) scale(1,1)"><rect fill="#C0C0C0" stroke="none" x="655" y="205" width="216" height="66" opacity="0.2"/></g><g transform="translate(-54,-22) scale(1,1)"><rect fill="#ffffff" stroke="none" x="648" y="199" width="216" height="65"/></g><g transform="translate(-54,-22) scale(1,1)"><path fill="none" stroke="#000000" d="M 648 199 L 864 199 L 864 264 L 648 264 L 648 199 Z Z" stroke-miterlimit="10"/></g><g transform="translate(-54,-22) scale(1,1)"><rect fill="#ffffff" stroke="none" x="648" y="184" width="86.39999999999998" height="15"/></g><g transform="translate(-54,-22) scale(1,1)"><path fill="none" stroke="#000000" d="M 648 184 L 734.4 184 L 734.4 199 L 648 199 L 648 184 Z Z" stroke-miterlimit="10"/></g><g transform="translate(-54,-22) scale(1,1)"><rect fill="#ffffff" stroke="none" x="648" y="198" width="216" height="66"/></g><g transform="translate(-54,-22) scale(1,1)"><path fill="none" stroke="#000000" d="M 648 198 L 864 198 L 864 264 L 648 264 L 648 198 Z Z" stroke-miterlimit="10"/></g><g transform="translate(-54,-22) scale(1,1)"><g><path fill="none" stroke="none"/><text fill="#000000" stroke="none" font-family="Arial" font-size="13px" font-style="normal" font-weight="normal" text-decoration="none" x="694" y="216.5">«Service on Internet»</text></g></g><g transform="translate(-54,-22) scale(1,1)"><g><path fill="none" stroke="none"/><text fill="#000000" stroke="none" font-family="Arial" font-size="13px" font-style="normal" font-weight="bold" text-decoration="none" x="668.5" y="231.5">External Sample Data Service</text></g></g><g transform="translate(-54,-22) scale(1,1)"><path fill="none" stroke="#000000" d="M 513 149 L 647 190" stroke-miterlimit="10" stroke-dasharray="3"/></g><g transform="translate(-54,-22) scale(1,1)"><path fill="none" stroke="#000000" d="M 636.0504112058597 191.0519055277155 L 647 190 L 638.513661980644 183.00128104427444" stroke-miterlimit="10"/></g><g transform="translate(-54,-22) scale(1,1)"><rect fill="#C0C0C0" stroke="none" x="647" y="95" width="86.39999999999998" height="15" opacity="0.2"/></g><g transform="translate(-54,-22) scale(1,1)"><rect fill="#C0C0C0" stroke="none" x="647" y="109" width="216" height="53" opacity="0.2"/></g><g transform="translate(-54,-22) scale(1,1)"><rect fill="#ffffff" stroke="none" x="640" y="103" width="216" height="52"/></g><g transform="translate(-54,-22) scale(1,1)"><path fill="none" stroke="#000000" d="M 640 103 L 856 103 L 856 155 L 640 155 L 640 103 Z Z" stroke-miterlimit="10"/></g><g transform="translate(-54,-22) scale(1,1)"><rect fill="#ffffff" stroke="none" x="640" y="88" width="86.39999999999998" height="15"/></g><g transform="translate(-54,-22) scale(1,1)"><path fill="none" stroke="#000000" d="M 640 88 L 726.4 88 L 726.4 103 L 640 103 L 640 88 Z Z" stroke-miterlimit="10"/></g><g transform="translate(-54,-22) scale(1,1)"><rect fill="#ffffff" stroke="none" x="640" y="102" width="216" height="53"/></g><g transform="translate(-54,-22) scale(1,1)"><path fill="none" stroke="#000000" d="M 640 102 L 856 102 L 856 155 L 640 155 L 640 102 Z Z" stroke-miterlimit="10"/></g><g transform="translate(-54,-22) scale(1,1)"><g><path fill="none" stroke="none"/><text fill="#000000" stroke="none" font-family="Arial" font-size="13px" font-style="normal" font-weight="normal" text-decoration="none" x="684.5" y="120.5">«Service on Bluemix»</text></g></g><g transform="translate(-54,-22) scale(1,1)"><g><path fill="none" stroke="none"/><text fill="#000000" stroke="none" font-family="Arial" font-size="13px" font-style="normal" font-weight="bold" text-decoration="none" x="722.5" y="135.5">Cloudant</text></g></g><g transform="translate(-54,-22) scale(1,1)"><g><path fill="none" stroke="none"/><text fill="#000000" stroke="none" font-family="Arial" font-size="13px" font-style="normal" font-weight="normal" text-decoration="none" x="671.5" y="150.5">(from Bluemix Application)</text></g></g><g transform="translate(-54,-22) scale(1,1)"><path fill="none" stroke="#000000" d="M 513 126 L 639 124" stroke-miterlimit="10" stroke-dasharray="3"/></g><g transform="translate(-54,-22) scale(1,1)"><path fill="none" stroke="#000000" d="M 628.9054144831438 128.37027953829912 L 639 124 L 628.7717958305514 119.95230442497557" stroke-miterlimit="10"/></g></g></svg>