<svg version="1.1" xmlns="http://www.w3.org/2000/svg" xmlns:xlink="http://www.w3.org/1999/xlink" width="675" height="346"><defs/><g><g transform="translate(-38,10) scale(1,1)"><g><path fill="none" stroke="none"/><text fill="#000000" stroke="none" font-family="Arial" font-size="24px" font-style="normal" font-weight="normal" text-decoration="none" x="53" y="69">Overview UseCase Realizations</text></g></g><g transform="translate(-38,10) scale(1,1)"><path fill="#C0C0C0" stroke="none" d="M 519 228 C 519 213.6405952 561.7568016 202 614.5 202 C 667.2431984 202 710 213.6405952 710 228 C 710 242.3594048 667.2431984 254 614.5 254 C 561.7568016 254 519 242.3594048 519 228 Z" opacity="0.2"/></g><g transform="translate(-38,10) scale(1,1)"><path fill="#ffffff" stroke="none" d="M 512 221 C 512 206.6405952 554.7568016 195 607.5 195 C 660.2431984 195 703 206.6405952 703 221 C 703 235.3594048 660.2431984 247 607.5 247 C 554.7568016 247 512 235.3594048 512 221 Z"/></g><g transform="translate(-38,10) scale(1,1)"><path fill="none" stroke="#000000" d="M 512 221 C 512 206.6405952 554.7568016 195 607.5 195 C 660.2431984 195 703 206.6405952 703 221 C 703 235.3594048 660.2431984 247 607.5 247 C 554.7568016 247 512 235.3594048 512 221 Z" stroke-miterlimit="10" stroke-dasharray="5"/></g><g transform="translate(-38,10) scale(1,1)"><g><path fill="none" stroke="none"/><text fill="#000000" stroke="none" font-family="Arial" font-size="13px" font-style="normal" font-weight="normal" text-decoration="none" x="544.5" y="219.5">«usecase-realization»</text></g></g><g transform="translate(-38,10) scale(1,1)"><g><path fill="none" stroke="none"/><text fill="#000000" stroke="none" font-family="Arial" font-size="13px" font-style="normal" font-weight="bold" text-decoration="none" x="559" y="234.5">filter sensor data</text></g></g><g transform="translate(-38,10) scale(1,1)"><path fill="#C0C0C0" stroke="none" d="M 127 226.5 C 127 211.31216799999999 166.62279519999998 199 215.5 199 C 264.3772048 199 304 211.31216799999999 304 226.5 C 304 241.68783200000001 264.3772048 254 215.5 254 C 166.62279519999998 254 127 241.68783200000001 127 226.5 Z" opacity="0.2"/></g><g transform="translate(-38,10) scale(1,1)"><path fill="#ffffff" stroke="none" d="M 120 219.5 C 120 204.31216799999999 159.62279519999998 192 208.5 192 C 257.3772048 192 297 204.31216799999999 297 219.5 C 297 234.68783200000001 257.3772048 247 208.5 247 C 159.62279519999998 247 120 234.68783200000001 120 219.5 Z"/></g><g transform="translate(-38,10) scale(1,1)"><path fill="none" stroke="#000000" d="M 120 219.5 C 120 204.31216799999999 159.62279519999998 192 208.5 192 C 257.3772048 192 297 204.31216799999999 297 219.5 C 297 234.68783200000001 257.3772048 247 208.5 247 C 159.62279519999998 247 120 234.68783200000001 120 219.5 Z" stroke-miterlimit="10"/></g><g transform="translate(-38,10) scale(1,1)"><g><path fill="none" stroke="none"/><text fill="#000000" stroke="none" font-family="Arial" font-size="13px" font-style="normal" font-weight="bold" text-decoration="none" x="160" y="219">filter sensor data</text></g></g><g transform="translate(-38,10) scale(1,1)"><g><path fill="none" stroke="none"/><text fill="#000000" stroke="none" font-family="Arial" font-size="13px" font-style="normal" font-weight="normal" text-decoration="none" x="150.5" y="234">(from 01 UseCases)</text></g></g><g transform="translate(-38,10) scale(1,1)"><path fill="none" stroke="#000000" d="M 511 221 L 298 219" stroke-miterlimit="10" stroke-dasharray="3"/></g><g transform="translate(-38,10) scale(1,1)"><path fill="none" stroke="#000000" d="M 308.20175113242635 214.88608777049907 L 298 219 L 308.1227026404026 223.30475217102983" stroke-miterlimit="10"/></g><g transform="translate(-38,10) scale(1,1)"><rect fill="#ffffff" stroke="none" x="128" y="304" width="154" height="22"/></g><g transform="translate(-38,10) scale(1,1)"><path fill="none" stroke="#000000" d="M 128 304 L 282 304 L 282 326 L 128 326 L 128 304 Z Z" stroke-miterlimit="10"/></g><g transform="translate(-38,10) scale(1,1)"><path fill="none" stroke="#000000" d="M 161 304 L 161 326" stroke-miterlimit="10"/></g><g transform="translate(-38,10) scale(1,1)"><g><path fill="none" stroke="none"/><text fill="#000000" stroke="none" font-family="Arial" font-size="13px" font-style="normal" font-weight="normal" text-decoration="none" x="165.5" y="321.5">Overview UseCase</text></g></g><g transform="translate(-38,10) scale(1,1)"><g><path fill="none" stroke="none"/><text fill="#000000" stroke="none" font-family="Arial" font-size="13px" font-style="normal" font-weight="bold" text-decoration="none" x="134.5" y="321.5">link</text></g></g></g></svg>