<svg version="1.1" xmlns="http://www.w3.org/2000/svg" xmlns:xlink="http://www.w3.org/1999/xlink" width="484" height="156"><defs/><g><g transform="translate(-30,-38) scale(1,1)"><g><path fill="none" stroke="none"/><text fill="#000000" stroke="none" font-family="Arial" font-size="22px" font-style="normal" font-weight="normal" text-decoration="none" x="45" y="75">System Overview</text></g></g><g transform="translate(-30,-38) scale(1,1)"><rect fill="#C0C0C0" stroke="none" x="335" y="127" width="70.39999999999998" height="15" opacity="0.2"/></g><g transform="translate(-30,-38) scale(1,1)"><rect fill="#C0C0C0" stroke="none" x="335" y="141" width="176" height="50" opacity="0.2"/></g><g transform="translate(-30,-38) scale(1,1)"><rect fill="#ffffff" stroke="none" x="328" y="135" width="176" height="49"/></g><g transform="translate(-30,-38) scale(1,1)"><path fill="none" stroke="#000000" d="M 328 135 L 504 135 L 504 184 L 328 184 L 328 135 Z Z" stroke-miterlimit="10"/></g><g transform="translate(-30,-38) scale(1,1)"><rect fill="#ffffff" stroke="none" x="328" y="120" width="70.39999999999998" height="15"/></g><g transform="translate(-30,-38) scale(1,1)"><path fill="none" stroke="#000000" d="M 328 120 L 398.4 120 L 398.4 135 L 328 135 L 328 120 Z Z" stroke-miterlimit="10"/></g><g transform="translate(-30,-38) scale(1,1)"><rect fill="#ffffff" stroke="none" x="328" y="134" width="176" height="50"/></g><g transform="translate(-30,-38) scale(1,1)"><path fill="none" stroke="#000000" d="M 328 134 L 504 134 L 504 184 L 328 184 L 328 134 Z Z" stroke-miterlimit="10"/></g><g transform="translate(-30,-38) scale(1,1)"><g><path fill="none" stroke="none"/><text fill="#000000" stroke="none" font-family="Arial" font-size="13px" font-style="normal" font-weight="bold" text-decoration="none" x="358.5" y="154.5">Bluemix Application</text></g></g><g transform="translate(-30,-38) scale(1,1)"><rect fill="#C0C0C0" stroke="none" x="47" y="127" width="72" height="15" opacity="0.2"/></g><g transform="translate(-30,-38) scale(1,1)"><rect fill="#C0C0C0" stroke="none" x="47" y="141" width="180" height="50" opacity="0.2"/></g><g transform="translate(-30,-38) scale(1,1)"><rect fill="#ffffff" stroke="none" x="40" y="135" width="180" height="49"/></g><g transform="translate(-30,-38) scale(1,1)"><path fill="none" stroke="#000000" d="M 40 135 L 220 135 L 220 184 L 40 184 L 40 135 Z Z" stroke-miterlimit="10"/></g><g transform="translate(-30,-38) scale(1,1)"><rect fill="#ffffff" stroke="none" x="40" y="120" width="72" height="15"/></g><g transform="translate(-30,-38) scale(1,1)"><path fill="none" stroke="#000000" d="M 40 120 L 112 120 L 112 135 L 40 135 L 40 120 Z Z" stroke-miterlimit="10"/></g><g transform="translate(-30,-38) scale(1,1)"><rect fill="#ffffff" stroke="none" x="40" y="134" width="180" height="50"/></g><g transform="translate(-30,-38) scale(1,1)"><path fill="none" stroke="#000000" d="M 40 134 L 220 134 L 220 184 L 40 184 L 40 134 Z Z" stroke-miterlimit="10"/></g><g transform="translate(-30,-38) scale(1,1)"><g><path fill="none" stroke="none"/><text fill="#000000" stroke="none" font-family="Arial" font-size="13px" font-style="normal" font-weight="bold" text-decoration="none" x="77" y="154.5">Mobile Application</text></g></g><g transform="translate(-30,-38) scale(1,1)"><path fill="none" stroke="#000000" d="M 221 152 L 327 152" stroke-miterlimit="10" stroke-dasharray="3"/></g><g transform="translate(-30,-38) scale(1,1)"><path fill="none" stroke="#000000" d="M 316.83732514237585 156.209517756016 L 327 152 L 316.83732514237585 147.790482243984" stroke-miterlimit="10"/></g></g></svg>