<svg version="1.1" xmlns="http://www.w3.org/2000/svg" xmlns:xlink="http://www.w3.org/1999/xlink" width="892" height="540"><defs/><g><g transform="translate(-14,-46) scale(1,1)"><rect fill="#ffffff" stroke="none" x="24" y="88" width="216" height="488"/></g><g transform="translate(-14,-46) scale(1,1)"><path fill="none" stroke="#000000" d="M 24 88 L 240 88 L 240 576 L 24 576 L 24 88 Z Z" stroke-miterlimit="10"/></g><g transform="translate(-14,-46) scale(1,1)"><rect fill="#ffffff" stroke="none" x="280" y="96" width="616" height="184"/></g><g transform="translate(-14,-46) scale(1,1)"><path fill="none" stroke="#000000" d="M 280 96 L 896 96 L 896 280 L 280 280 L 280 96 Z Z" stroke-miterlimit="10"/></g><g transform="translate(-14,-46) scale(1,1)"><rect fill="#C0C0C0" stroke="none" x="55" y="351" width="57.599999999999994" height="15" opacity="0.2"/></g><g transform="translate(-14,-46) scale(1,1)"><rect fill="#C0C0C0" stroke="none" x="55" y="365" width="144" height="58" opacity="0.2"/></g><g transform="translate(-14,-46) scale(1,1)"><rect fill="#ffffff" stroke="none" x="48" y="359" width="144" height="57"/></g><g transform="translate(-14,-46) scale(1,1)"><path fill="none" stroke="#000000" d="M 48 359 L 192 359 L 192 416 L 48 416 L 48 359 Z Z" stroke-miterlimit="10"/></g><g transform="translate(-14,-46) scale(1,1)"><rect fill="#ffffff" stroke="none" x="48" y="344" width="57.599999999999994" height="15"/></g><g transform="translate(-14,-46) scale(1,1)"><path fill="none" stroke="#000000" d="M 48 344 L 105.6 344 L 105.6 359 L 48 359 L 48 344 Z Z" stroke-miterlimit="10"/></g><g transform="translate(-14,-46) scale(1,1)"><rect fill="#ffffff" stroke="none" x="48" y="358" width="144" height="58"/></g><g transform="translate(-14,-46) scale(1,1)"><path fill="none" stroke="#000000" d="M 48 358 L 192 358 L 192 416 L 48 416 L 48 358 Z Z" stroke-miterlimit="10"/></g><g transform="translate(-14,-46) scale(1,1)"><g><path fill="none" stroke="none"/><text fill="#000000" stroke="none" font-family="Arial" font-size="13px" font-style="normal" font-weight="bold" text-decoration="none" x="74.5" y="378.5">03 Components</text></g></g><g transform="translate(-14,-46) scale(1,1)"><rect fill="#C0C0C0" stroke="none" x="63" y="127" width="57.599999999999994" height="15" opacity="0.2"/></g><g transform="translate(-14,-46) scale(1,1)"><rect fill="#C0C0C0" stroke="none" x="63" y="141" width="144" height="58" opacity="0.2"/></g><g transform="translate(-14,-46) scale(1,1)"><rect fill="#ffffff" stroke="none" x="56" y="135" width="144" height="57"/></g><g transform="translate(-14,-46) scale(1,1)"><path fill="none" stroke="#000000" d="M 56 135 L 200 135 L 200 192 L 56 192 L 56 135 Z Z" stroke-miterlimit="10"/></g><g transform="translate(-14,-46) scale(1,1)"><rect fill="#ffffff" stroke="none" x="56" y="120" width="57.599999999999994" height="15"/></g><g transform="translate(-14,-46) scale(1,1)"><path fill="none" stroke="#000000" d="M 56 120 L 113.6 120 L 113.6 135 L 56 135 L 56 120 Z Z" stroke-miterlimit="10"/></g><g transform="translate(-14,-46) scale(1,1)"><rect fill="#ffffff" stroke="none" x="56" y="134" width="144" height="58"/></g><g transform="translate(-14,-46) scale(1,1)"><path fill="none" stroke="#000000" d="M 56 134 L 200 134 L 200 192 L 56 192 L 56 134 Z Z" stroke-miterlimit="10"/></g><g transform="translate(-14,-46) scale(1,1)"><g><path fill="none" stroke="none"/><text fill="#000000" stroke="none" font-family="Arial" font-size="13px" font-style="normal" font-weight="bold" text-decoration="none" x="89" y="154.5">01 UseCases</text></g></g><g transform="translate(-14,-46) scale(1,1)"><rect fill="#C0C0C0" stroke="none" x="55" y="463" width="57.599999999999994" height="15" opacity="0.2"/></g><g transform="translate(-14,-46) scale(1,1)"><rect fill="#C0C0C0" stroke="none" x="55" y="477" width="144" height="66" opacity="0.2"/></g><g transform="translate(-14,-46) scale(1,1)"><rect fill="#ffffff" stroke="none" x="48" y="471" width="144" height="65"/></g><g transform="translate(-14,-46) scale(1,1)"><path fill="none" stroke="#000000" d="M 48 471 L 192 471 L 192 536 L 48 536 L 48 471 Z Z" stroke-miterlimit="10"/></g><g transform="translate(-14,-46) scale(1,1)"><rect fill="#ffffff" stroke="none" x="48" y="456" width="57.599999999999994" height="15"/></g><g transform="translate(-14,-46) scale(1,1)"><path fill="none" stroke="#000000" d="M 48 456 L 105.6 456 L 105.6 471 L 48 471 L 48 456 Z Z" stroke-miterlimit="10"/></g><g transform="translate(-14,-46) scale(1,1)"><rect fill="#ffffff" stroke="none" x="48" y="470" width="144" height="66"/></g><g transform="translate(-14,-46) scale(1,1)"><path fill="none" stroke="#000000" d="M 48 470 L 192 470 L 192 536 L 48 536 L 48 470 Z Z" stroke-miterlimit="10"/></g><g transform="translate(-14,-46) scale(1,1)"><g><path fill="none" stroke="none"/><text fill="#000000" stroke="none" font-family="Arial" font-size="13px" font-style="normal" font-weight="bold" text-decoration="none" x="76.5" y="490.5">04 Deployment</text></g></g><g transform="translate(-14,-46) scale(1,1)"><g><path fill="none" stroke="none"/><text fill="#000000" stroke="none" font-family="Arial" font-size="16px" font-style="normal" font-weight="normal" text-decoration="none" x="69" y="77">Model Overview</text></g></g><g transform="translate(-14,-46) scale(1,1)"><rect fill="#C0C0C0" stroke="none" x="311" y="191" width="102.39999999999998" height="15" opacity="0.2"/></g><g transform="translate(-14,-46) scale(1,1)"><rect fill="#C0C0C0" stroke="none" x="311" y="205" width="256" height="66" opacity="0.2"/></g><g transform="translate(-14,-46) scale(1,1)"><rect fill="#ffffff" stroke="none" x="304" y="199" width="256" height="65"/></g><g transform="translate(-14,-46) scale(1,1)"><path fill="none" stroke="#000000" d="M 304 199 L 560 199 L 560 264 L 304 264 L 304 199 Z Z" stroke-miterlimit="10"/></g><g transform="translate(-14,-46) scale(1,1)"><rect fill="#ffffff" stroke="none" x="304" y="184" width="102.39999999999998" height="15"/></g><g transform="translate(-14,-46) scale(1,1)"><path fill="none" stroke="#000000" d="M 304 184 L 406.4 184 L 406.4 199 L 304 199 L 304 184 Z Z" stroke-miterlimit="10"/></g><g transform="translate(-14,-46) scale(1,1)"><rect fill="#ffffff" stroke="none" x="304" y="198" width="256" height="66"/></g><g transform="translate(-14,-46) scale(1,1)"><path fill="none" stroke="#000000" d="M 304 198 L 560 198 L 560 264 L 304 264 L 304 198 Z Z" stroke-miterlimit="10"/></g><g transform="translate(-14,-46) scale(1,1)"><g><path fill="none" stroke="none"/><text fill="#000000" stroke="none" font-family="Arial" font-size="13px" font-style="normal" font-weight="bold" text-decoration="none" x="379" y="218.5">Mobile Application</text></g></g><g transform="translate(-14,-46) scale(1,1)"><rect fill="#C0C0C0" stroke="none" x="607" y="191" width="108.79999999999995" height="15" opacity="0.2"/></g><g transform="translate(-14,-46) scale(1,1)"><rect fill="#C0C0C0" stroke="none" x="607" y="205" width="272" height="66" opacity="0.2"/></g><g transform="translate(-14,-46) scale(1,1)"><rect fill="#ffffff" stroke="none" x="600" y="199" width="272" height="65"/></g><g transform="translate(-14,-46) scale(1,1)"><path fill="none" stroke="#000000" d="M 600 199 L 872 199 L 872 264 L 600 264 L 600 199 Z Z" stroke-miterlimit="10"/></g><g transform="translate(-14,-46) scale(1,1)"><rect fill="#ffffff" stroke="none" x="600" y="184" width="108.79999999999995" height="15"/></g><g transform="translate(-14,-46) scale(1,1)"><path fill="none" stroke="#000000" d="M 600 184 L 708.8 184 L 708.8 199 L 600 199 L 600 184 Z Z" stroke-miterlimit="10"/></g><g transform="translate(-14,-46) scale(1,1)"><rect fill="#ffffff" stroke="none" x="600" y="198" width="272" height="66"/></g><g transform="translate(-14,-46) scale(1,1)"><path fill="none" stroke="#000000" d="M 600 198 L 872 198 L 872 264 L 600 264 L 600 198 Z Z" stroke-miterlimit="10"/></g><g transform="translate(-14,-46) scale(1,1)"><g><path fill="none" stroke="none"/><text fill="#000000" stroke="none" font-family="Arial" font-size="13px" font-style="normal" font-weight="bold" text-decoration="none" x="678.5" y="218.5">Bluemix Application</text></g></g><g transform="translate(-14,-46) scale(1,1)"><g><path fill="none" stroke="none"/><text fill="#000000" stroke="none" font-family="Arial" font-size="22px" font-style="normal" font-weight="normal" text-decoration="none" x="301" y="131">System Overview</text></g></g><g transform="translate(-14,-46) scale(1,1)"><path fill="none" stroke="#000000" d="M 561 224 L 599 224" stroke-miterlimit="10" stroke-dasharray="3"/></g><g transform="translate(-14,-46) scale(1,1)"><path fill="none" stroke="#000000" d="M 588.8373251423759 228.209517756016 L 599 224 L 588.8373251423758 219.790482243984" stroke-miterlimit="10"/></g><g transform="translate(-14,-46) scale(1,1)"><rect fill="#ffffff" stroke="none" x="56" y="184" width="154" height="22"/></g><g transform="translate(-14,-46) scale(1,1)"><path fill="none" stroke="#000000" d="M 56 184 L 210 184 L 210 206 L 56 206 L 56 184 Z Z" stroke-miterlimit="10"/></g><g transform="translate(-14,-46) scale(1,1)"><path fill="none" stroke="#000000" d="M 89 184 L 89 206" stroke-miterlimit="10"/></g><g transform="translate(-14,-46) scale(1,1)"><g><path fill="none" stroke="none"/><text fill="#000000" stroke="none" font-family="Arial" font-size="13px" font-style="normal" font-weight="normal" text-decoration="none" x="93.5" y="201.5">Overview UseCase</text></g></g><g transform="translate(-14,-46) scale(1,1)"><g><path fill="none" stroke="none"/><text fill="#000000" stroke="none" font-family="Arial" font-size="13px" font-style="normal" font-weight="bold" text-decoration="none" x="62.5" y="201.5">link</text></g></g><g transform="translate(-14,-46) scale(1,1)"><rect fill="#C0C0C0" stroke="none" x="55" y="239" width="65.6" height="15" opacity="0.2"/></g><g transform="translate(-14,-46) scale(1,1)"><rect fill="#C0C0C0" stroke="none" x="55" y="253" width="164" height="66" opacity="0.2"/></g><g transform="translate(-14,-46) scale(1,1)"><rect fill="#ffffff" stroke="none" x="48" y="247" width="164" height="65"/></g><g transform="translate(-14,-46) scale(1,1)"><path fill="none" stroke="#000000" d="M 48 247 L 212 247 L 212 312 L 48 312 L 48 247 Z Z" stroke-miterlimit="10"/></g><g transform="translate(-14,-46) scale(1,1)"><rect fill="#ffffff" stroke="none" x="48" y="232" width="65.6" height="15"/></g><g transform="translate(-14,-46) scale(1,1)"><path fill="none" stroke="#000000" d="M 48 232 L 113.6 232 L 113.6 247 L 48 247 L 48 232 Z Z" stroke-miterlimit="10"/></g><g transform="translate(-14,-46) scale(1,1)"><rect fill="#ffffff" stroke="none" x="48" y="246" width="164" height="66"/></g><g transform="translate(-14,-46) scale(1,1)"><path fill="none" stroke="#000000" d="M 48 246 L 212 246 L 212 312 L 48 312 L 48 246 Z Z" stroke-miterlimit="10"/></g><g transform="translate(-14,-46) scale(1,1)"><g><path fill="none" stroke="none"/><text fill="#000000" stroke="none" font-family="Arial" font-size="13px" font-style="normal" font-weight="bold" text-decoration="none" x="55" y="266.5">02  UseCases Realization</text></g></g><g transform="translate(-14,-46) scale(1,1)"><rect fill="#ffffff" stroke="none" x="48" y="400" width="171" height="22"/></g><g transform="translate(-14,-46) scale(1,1)"><path fill="none" stroke="#000000" d="M 48 400 L 219 400 L 219 422 L 48 422 L 48 400 Z Z" stroke-miterlimit="10"/></g><g transform="translate(-14,-46) scale(1,1)"><path fill="none" stroke="#000000" d="M 81 400 L 81 422" stroke-miterlimit="10"/></g><g transform="translate(-14,-46) scale(1,1)"><g><path fill="none" stroke="none"/><text fill="#000000" stroke="none" font-family="Arial" font-size="13px" font-style="normal" font-weight="normal" text-decoration="none" x="85.5" y="417.5"> Overview Component</text></g></g><g transform="translate(-14,-46) scale(1,1)"><g><path fill="none" stroke="none"/><text fill="#000000" stroke="none" font-family="Arial" font-size="13px" font-style="normal" font-weight="bold" text-decoration="none" x="54.5" y="417.5">link</text></g></g><g transform="translate(-14,-46) scale(1,1)"><rect fill="#ffffff" stroke="none" x="40" y="296" width="229" height="22"/></g><g transform="translate(-14,-46) scale(1,1)"><path fill="none" stroke="#000000" d="M 40 296 L 269 296 L 269 318 L 40 318 L 40 296 Z Z" stroke-miterlimit="10"/></g><g transform="translate(-14,-46) scale(1,1)"><path fill="none" stroke="#000000" d="M 73 296 L 73 318" stroke-miterlimit="10"/></g><g transform="translate(-14,-46) scale(1,1)"><g><path fill="none" stroke="none"/><text fill="#000000" stroke="none" font-family="Arial" font-size="13px" font-style="normal" font-weight="normal" text-decoration="none" x="77.5" y="313.5">Overview UseCase Realizations</text></g></g><g transform="translate(-14,-46) scale(1,1)"><g><path fill="none" stroke="none"/><text fill="#000000" stroke="none" font-family="Arial" font-size="13px" font-style="normal" font-weight="bold" text-decoration="none" x="46.5" y="313.5">link</text></g></g><g transform="translate(-14,-46) scale(1,1)"><rect fill="#ffffff" stroke="none" x="608" y="232" width="216" height="22"/></g><g transform="translate(-14,-46) scale(1,1)"><path fill="none" stroke="#000000" d="M 608 232 L 824 232 L 824 254 L 608 254 L 608 232 Z Z" stroke-miterlimit="10"/></g><g transform="translate(-14,-46) scale(1,1)"><path fill="none" stroke="#000000" d="M 641 232 L 641 254" stroke-miterlimit="10"/></g><g transform="translate(-14,-46) scale(1,1)"><g><path fill="none" stroke="none"/><text fill="#000000" stroke="none" font-family="Arial" font-size="13px" font-style="normal" font-weight="normal" text-decoration="none" x="645.5" y="249.5">Overview Bluemix Application</text></g></g><g transform="translate(-14,-46) scale(1,1)"><g><path fill="none" stroke="none"/><text fill="#000000" stroke="none" font-family="Arial" font-size="13px" font-style="normal" font-weight="bold" text-decoration="none" x="614.5" y="249.5">link</text></g></g><g transform="translate(-14,-46) scale(1,1)"><rect fill="#ffffff" stroke="none" x="320" y="232" width="207" height="22"/></g><g transform="translate(-14,-46) scale(1,1)"><path fill="none" stroke="#000000" d="M 320 232 L 527 232 L 527 254 L 320 254 L 320 232 Z Z" stroke-miterlimit="10"/></g><g transform="translate(-14,-46) scale(1,1)"><path fill="none" stroke="#000000" d="M 353 232 L 353 254" stroke-miterlimit="10"/></g><g transform="translate(-14,-46) scale(1,1)"><g><path fill="none" stroke="none"/><text fill="#000000" stroke="none" font-family="Arial" font-size="13px" font-style="normal" font-weight="normal" text-decoration="none" x="357.5" y="249.5">Overview Mobile Application</text></g></g><g transform="translate(-14,-46) scale(1,1)"><g><path fill="none" stroke="none"/><text fill="#000000" stroke="none" font-family="Arial" font-size="13px" font-style="normal" font-weight="bold" text-decoration="none" x="326.5" y="249.5">link</text></g></g></g></svg>