<svg version="1.1" xmlns="http://www.w3.org/2000/svg" xmlns:xlink="http://www.w3.org/1999/xlink" width="1026.48828125" height="574"><defs/><g><g transform="translate(-14,-6) scale(1,1)"><path fill="#ffffff" stroke="none" d="M 99.56511203835227 321.68 C 99.56511203835227 316.886167936 103.45095436329773 313 108.244384765625 313 C 113.03781516795227 313 116.92365749289773 316.886167936 116.92365749289773 321.68 C 116.92365749289773 326.473832064 113.03781516795227 330.36 108.244384765625 330.36 C 103.45095436329773 330.36 99.56511203835227 326.473832064 99.56511203835227 321.68 Z"/></g><g transform="translate(-14,-6) scale(1,1)"><path fill="none" stroke="#000000" d="M 99.56511203835227 321.68 C 99.56511203835227 316.886167936 103.45095436329773 313 108.244384765625 313 C 113.03781516795227 313 116.92365749289773 316.886167936 116.92365749289773 321.68 C 116.92365749289773 326.473832064 113.03781516795227 330.36 108.244384765625 330.36 C 103.45095436329773 330.36 99.56511203835227 326.473832064 99.56511203835227 321.68 Z" stroke-miterlimit="10"/></g><g transform="translate(-14,-6) scale(1,1)"><path fill="none" stroke="#000000" d="M 108.244384765625 330.36 L 108.244384765625 347.64" stroke-miterlimit="10"/></g><g transform="translate(-14,-6) scale(1,1)"><path fill="none" stroke="#000000" d="M 99.05456658380682 336.84 L 117.43420294744318 336.84" stroke-miterlimit="10"/></g><g transform="translate(-14,-6) scale(1,1)"><path fill="none" stroke="#000000" d="M 108.244384765625 347.64 L 95.48074840198863 365" stroke-miterlimit="10"/></g><g transform="translate(-14,-6) scale(1,1)"><path fill="none" stroke="#000000" d="M 108.244384765625 347.64 L 121.00802112926137 365" stroke-miterlimit="10"/></g><g transform="translate(-14,-6) scale(1,1)"><g><path fill="none" stroke="none"/><text fill="#000000" stroke="none" font-family="Arial" font-size="13px" font-style="normal" font-weight="bold" text-decoration="none" x="73.744384765625" y="385.5">Mobile User</text></g></g><g transform="translate(-14,-6) scale(1,1)"><path fill="#ffffff" stroke="none" d="M 96.94694797585227 129.68 C 96.94694797585227 124.886167936 100.83279030079773 121 105.626220703125 121 C 110.41965110545227 121 114.30549343039773 124.886167936 114.30549343039773 129.68 C 114.30549343039773 134.47383206400002 110.41965110545227 138.36 105.626220703125 138.36 C 100.83279030079773 138.36 96.94694797585227 134.47383206400002 96.94694797585227 129.68 Z"/></g><g transform="translate(-14,-6) scale(1,1)"><path fill="none" stroke="#000000" d="M 96.94694797585227 129.68 C 96.94694797585227 124.886167936 100.83279030079773 121 105.626220703125 121 C 110.41965110545227 121 114.30549343039773 124.886167936 114.30549343039773 129.68 C 114.30549343039773 134.47383206400002 110.41965110545227 138.36 105.626220703125 138.36 C 100.83279030079773 138.36 96.94694797585227 134.47383206400002 96.94694797585227 129.68 Z" stroke-miterlimit="10"/></g><g transform="translate(-14,-6) scale(1,1)"><path fill="none" stroke="#000000" d="M 105.626220703125 138.36 L 105.626220703125 155.64" stroke-miterlimit="10"/></g><g transform="translate(-14,-6) scale(1,1)"><path fill="none" stroke="#000000" d="M 96.43640252130682 144.84 L 114.81603888494318 144.84" stroke-miterlimit="10"/></g><g transform="translate(-14,-6) scale(1,1)"><path fill="none" stroke="#000000" d="M 105.626220703125 155.64 L 92.86258433948863 173" stroke-miterlimit="10"/></g><g transform="translate(-14,-6) scale(1,1)"><path fill="none" stroke="#000000" d="M 105.626220703125 155.64 L 118.38985706676137 173" stroke-miterlimit="10"/></g><g transform="translate(-14,-6) scale(1,1)"><g><path fill="none" stroke="none"/><text fill="#000000" stroke="none" font-family="Arial" font-size="13px" font-style="normal" font-weight="bold" text-decoration="none" x="44.126220703125" y="193.5">Admin Backend User</text></g></g><g transform="translate(-14,-6) scale(1,1)"><path fill="#C0C0C0" stroke="none" d="M 199 120 C 199 110.6111584 323.6886832 103 477.5 103 C 631.3113168 103 756 110.6111584 756 120 C 756 129.3888416 631.3113168 137 477.5 137 C 323.6886832 137 199 129.3888416 199 120 Z" opacity="0.2"/></g><g transform="translate(-14,-6) scale(1,1)"><path fill="#a3e0ff" stroke="none" d="M 192 113 C 192 103.6111584 316.6886832 96 470.5 96 C 624.3113168 96 749 103.6111584 749 113 C 749 122.3888416 624.3113168 130 470.5 130 C 316.6886832 130 192 122.3888416 192 113 Z"/></g><g transform="translate(-14,-6) scale(1,1)"><path fill="none" stroke="#91ffec" d="M 192 113 C 192 103.6111584 316.6886832 96 470.5 96 C 624.3113168 96 749 103.6111584 749 113 C 749 122.3888416 624.3113168 130 470.5 130 C 316.6886832 130 192 122.3888416 192 113 Z" stroke-miterlimit="10"/></g><g transform="translate(-14,-6) scale(1,1)"><g><path fill="none" stroke="none"/><text fill="#000000" stroke="none" font-family="Arial" font-size="13px" font-style="normal" font-weight="bold" text-decoration="none" x="344" y="120">provide Overview to all existing sensor data</text></g></g><g transform="translate(-14,-6) scale(1,1)"><path fill="none" stroke="#000000" d="M 180 150 L 327 131" stroke-miterlimit="10"/></g><g transform="translate(-14,-6) scale(1,1)"><path fill="#C0C0C0" stroke="none" d="M 223 192 C 223 182.6111584 353.5089808 175 514.5 175 C 675.4910192 175 806 182.6111584 806 192 C 806 201.3888416 675.4910192 209 514.5 209 C 353.5089808 209 223 201.3888416 223 192 Z" opacity="0.2"/></g><g transform="translate(-14,-6) scale(1,1)"><path fill="#a3e0ff" stroke="none" d="M 216 185 C 216 175.6111584 346.5089808 168 507.5 168 C 668.4910192 168 799 175.6111584 799 185 C 799 194.3888416 668.4910192 202 507.5 202 C 346.5089808 202 216 194.3888416 216 185 Z"/></g><g transform="translate(-14,-6) scale(1,1)"><path fill="none" stroke="#91ffec" d="M 216 185 C 216 175.6111584 346.5089808 168 507.5 168 C 668.4910192 168 799 175.6111584 799 185 C 799 194.3888416 668.4910192 202 507.5 202 C 346.5089808 202 216 194.3888416 216 185 Z" stroke-miterlimit="10"/></g><g transform="translate(-14,-6) scale(1,1)"><g><path fill="none" stroke="none"/><text fill="#000000" stroke="none" font-family="Arial" font-size="13px" font-style="normal" font-weight="bold" text-decoration="none" x="336.5" y="192">get a audio information about the actual temperature status</text></g></g><g transform="translate(-14,-6) scale(1,1)"><path fill="none" stroke="#000000" d="M 180 164 L 229 167" stroke-miterlimit="10"/></g><g transform="translate(-14,-6) scale(1,1)"><path fill="#ffffff" stroke="none" d="M 798.3634518821023 121.68 C 798.3634518821023 116.886167936 802.2492942070477 113 807.042724609375 113 C 811.8361550117023 113 815.7219973366477 116.886167936 815.7219973366477 121.68 C 815.7219973366477 126.473832064 811.8361550117023 130.36 807.042724609375 130.36 C 802.2492942070477 130.36 798.3634518821023 126.473832064 798.3634518821023 121.68 Z"/></g><g transform="translate(-14,-6) scale(1,1)"><path fill="none" stroke="#000000" d="M 798.3634518821023 121.68 C 798.3634518821023 116.886167936 802.2492942070477 113 807.042724609375 113 C 811.8361550117023 113 815.7219973366477 116.886167936 815.7219973366477 121.68 C 815.7219973366477 126.473832064 811.8361550117023 130.36 807.042724609375 130.36 C 802.2492942070477 130.36 798.3634518821023 126.473832064 798.3634518821023 121.68 Z" stroke-miterlimit="10"/></g><g transform="translate(-14,-6) scale(1,1)"><path fill="none" stroke="#000000" d="M 807.042724609375 130.36 L 807.042724609375 147.64" stroke-miterlimit="10"/></g><g transform="translate(-14,-6) scale(1,1)"><path fill="none" stroke="#000000" d="M 797.8529064275568 136.84 L 816.2325427911932 136.84" stroke-miterlimit="10"/></g><g transform="translate(-14,-6) scale(1,1)"><path fill="none" stroke="#000000" d="M 807.042724609375 147.64 L 794.2790882457386 165" stroke-miterlimit="10"/></g><g transform="translate(-14,-6) scale(1,1)"><path fill="none" stroke="#000000" d="M 807.042724609375 147.64 L 819.8063609730114 165" stroke-miterlimit="10"/></g><g transform="translate(-14,-6) scale(1,1)"><g><path fill="none" stroke="none"/><text fill="#000000" stroke="none" font-family="Arial" font-size="13px" font-style="normal" font-weight="bold" text-decoration="none" x="783.542724609375" y="185.5">Bluemix</text></g></g><g transform="translate(-14,-6) scale(1,1)"><path fill="none" stroke="#000000" d="M 630 131 L 775 147" stroke-miterlimit="10"/></g><g transform="translate(-14,-6) scale(1,1)"><path fill="none" stroke="#000000" d="M 666 167 L 775 155" stroke-miterlimit="10"/></g><g transform="translate(-14,-6) scale(1,1)"><path fill="#C0C0C0" stroke="none" d="M 351 560 C 351 550.6111584 397.5623808 543 455 543 C 512.4376192 543 559 550.6111584 559 560 C 559 569.3888416 512.4376192 577 455 577 C 397.5623808 577 351 569.3888416 351 560 Z" opacity="0.2"/></g><g transform="translate(-14,-6) scale(1,1)"><path fill="#ffeaad" stroke="none" d="M 344 553 C 344 543.6111584 390.5623808 536 448 536 C 505.4376192 536 552 543.6111584 552 553 C 552 562.3888416 505.4376192 570 448 570 C 390.5623808 570 344 562.3888416 344 553 Z"/></g><g transform="translate(-14,-6) scale(1,1)"><path fill="none" stroke="#ffaa56" d="M 344 553 C 344 543.6111584 390.5623808 536 448 536 C 505.4376192 536 552 543.6111584 552 553 C 552 562.3888416 505.4376192 570 448 570 C 390.5623808 570 344 562.3888416 344 553 Z" stroke-miterlimit="10"/></g><g transform="translate(-14,-6) scale(1,1)"><g><path fill="none" stroke="none"/><text fill="#000000" stroke="none" font-family="Arial" font-size="13px" font-style="normal" font-weight="bold" text-decoration="none" x="400" y="560">get driver details</text></g></g><g transform="translate(-14,-6) scale(1,1)"><path fill="#C0C0C0" stroke="none" d="M 351 280 C 351 270.6111584 399.3532416 263 459 263 C 518.6467584 263 567 270.6111584 567 280 C 567 289.3888416 518.6467584 297 459 297 C 399.3532416 297 351 289.3888416 351 280 Z" opacity="0.2"/></g><g transform="translate(-14,-6) scale(1,1)"><path fill="#ffeaad" stroke="none" d="M 344 273 C 344 263.6111584 392.3532416 256 452 256 C 511.6467584 256 560 263.6111584 560 273 C 560 282.3888416 511.6467584 290 452 290 C 392.3532416 290 344 282.3888416 344 273 Z"/></g><g transform="translate(-14,-6) scale(1,1)"><path fill="none" stroke="#ffaa56" d="M 344 273 C 344 263.6111584 392.3532416 256 452 256 C 511.6467584 256 560 263.6111584 560 273 C 560 282.3888416 511.6467584 290 452 290 C 392.3532416 290 344 282.3888416 344 273 Z" stroke-miterlimit="10"/></g><g transform="translate(-14,-6) scale(1,1)"><g><path fill="none" stroke="none"/><text fill="#000000" stroke="none" font-family="Arial" font-size="13px" font-style="normal" font-weight="bold" text-decoration="none" x="407" y="280">get sensor data</text></g></g><g transform="translate(-14,-6) scale(1,1)"><path fill="#C0C0C0" stroke="none" d="M 351 320 C 351 310.6111584 397.5623808 303 455 303 C 512.4376192 303 559 310.6111584 559 320 C 559 329.3888416 512.4376192 337 455 337 C 397.5623808 337 351 329.3888416 351 320 Z" opacity="0.2"/></g><g transform="translate(-14,-6) scale(1,1)"><path fill="#ffeaad" stroke="none" d="M 344 313 C 344 303.6111584 390.5623808 296 448 296 C 505.4376192 296 552 303.6111584 552 313 C 552 322.3888416 505.4376192 330 448 330 C 390.5623808 330 344 322.3888416 344 313 Z"/></g><g transform="translate(-14,-6) scale(1,1)"><path fill="none" stroke="#ffaa56" d="M 344 313 C 344 303.6111584 390.5623808 296 448 296 C 505.4376192 296 552 303.6111584 552 313 C 552 322.3888416 505.4376192 330 448 330 C 390.5623808 330 344 322.3888416 344 313 Z" stroke-miterlimit="10"/></g><g transform="translate(-14,-6) scale(1,1)"><g><path fill="none" stroke="none"/><text fill="#000000" stroke="none" font-family="Arial" font-size="13px" font-style="normal" font-weight="bold" text-decoration="none" x="399.5" y="320">filter sensor data</text></g></g><g transform="translate(-14,-6) scale(1,1)"><path fill="none" stroke="#000000" d="M 153 367 L 407 455" stroke-miterlimit="10"/></g><g transform="translate(-14,-6) scale(1,1)"><path fill="none" stroke="#000000" d="M 153 373 L 411 495" stroke-miterlimit="10"/></g><g transform="translate(-14,-6) scale(1,1)"><path fill="none" stroke="#000000" d="M 153 378 L 418 535" stroke-miterlimit="10"/></g><g transform="translate(-14,-6) scale(1,1)"><path fill="none" stroke="#000000" d="M 153 341 L 373 291" stroke-miterlimit="10"/></g><g transform="translate(-14,-6) scale(1,1)"><path fill="none" stroke="#000000" d="M 153 346 L 343 325" stroke-miterlimit="10"/></g><g transform="translate(-14,-6) scale(1,1)"><path fill="none" stroke="#000000" d="M 153 351 L 263 352" stroke-miterlimit="10"/></g><g transform="translate(-14,-6) scale(1,1)"><path fill="#ffffff" stroke="none" d="M 803.4508542258523 305.68 C 803.4508542258523 300.886167936 807.3366965507977 297 812.130126953125 297 C 816.9235573554523 297 820.8093996803977 300.886167936 820.8093996803977 305.68 C 820.8093996803977 310.473832064 816.9235573554523 314.36 812.130126953125 314.36 C 807.3366965507977 314.36 803.4508542258523 310.473832064 803.4508542258523 305.68 Z"/></g><g transform="translate(-14,-6) scale(1,1)"><path fill="none" stroke="#000000" d="M 803.4508542258523 305.68 C 803.4508542258523 300.886167936 807.3366965507977 297 812.130126953125 297 C 816.9235573554523 297 820.8093996803977 300.886167936 820.8093996803977 305.68 C 820.8093996803977 310.473832064 816.9235573554523 314.36 812.130126953125 314.36 C 807.3366965507977 314.36 803.4508542258523 310.473832064 803.4508542258523 305.68 Z" stroke-miterlimit="10"/></g><g transform="translate(-14,-6) scale(1,1)"><path fill="none" stroke="#000000" d="M 812.130126953125 314.36 L 812.130126953125 331.64" stroke-miterlimit="10"/></g><g transform="translate(-14,-6) scale(1,1)"><path fill="none" stroke="#000000" d="M 802.9403087713068 320.84 L 821.3199451349432 320.84" stroke-miterlimit="10"/></g><g transform="translate(-14,-6) scale(1,1)"><path fill="none" stroke="#000000" d="M 812.130126953125 331.64 L 799.3664905894886 349" stroke-miterlimit="10"/></g><g transform="translate(-14,-6) scale(1,1)"><path fill="none" stroke="#000000" d="M 812.130126953125 331.64 L 824.8937633167614 349" stroke-miterlimit="10"/></g><g transform="translate(-14,-6) scale(1,1)"><g><path fill="none" stroke="none"/><text fill="#000000" stroke="none" font-family="Arial" font-size="13px" font-style="normal" font-weight="bold" text-decoration="none" x="778.130126953125" y="369.5">Mobile First</text></g></g><g transform="translate(-14,-6) scale(1,1)"><path fill="none" stroke="#000000" d="M 505 455 L 767 353" stroke-miterlimit="10"/></g><g transform="translate(-14,-6) scale(1,1)"><path fill="none" stroke="#000000" d="M 557 291 L 767 327" stroke-miterlimit="10"/></g><g transform="translate(-14,-6) scale(1,1)"><path fill="none" stroke="#000000" d="M 553 319 L 767 332" stroke-miterlimit="10"/></g><g transform="translate(-14,-6) scale(1,1)"><path fill="none" stroke="#000000" d="M 153 332 L 464 203" stroke-miterlimit="10"/></g><g transform="translate(-14,-6) scale(1,1)"><g><path fill="none" stroke="none"/><text fill="#000000" stroke="none" font-family="Arial" font-size="22px" font-style="normal" font-weight="normal" text-decoration="none" x="29" y="43">Overview Sample UseCases</text></g></g><g transform="translate(-14,-6) scale(1,1)"><path fill="none" stroke="#000000" d="M 153 356 L 310 375" stroke-miterlimit="10"/></g><g transform="translate(-14,-6) scale(1,1)"><path fill="none" stroke="#000000" d="M 153 362 L 384 415" stroke-miterlimit="10"/></g><g transform="translate(-14,-6) scale(1,1)"><path fill="none" stroke="#000000" d="M 526 415 L 767 348" stroke-miterlimit="10"/></g><g transform="translate(-14,-6) scale(1,1)"><path fill="none" stroke="#000000" d="M 571 375 L 767 342" stroke-miterlimit="10"/></g><g transform="translate(-14,-6) scale(1,1)"><path fill="#C0C0C0" stroke="none" d="M 255 400 C 255 390.6111584 350.81105279999997 383 469 383 C 587.1889472 383 683 390.6111584 683 400 C 683 409.3888416 587.1889472 417 469 417 C 350.81105279999997 417 255 409.3888416 255 400 Z" opacity="0.2"/></g><g transform="translate(-14,-6) scale(1,1)"><path fill="#ffeaad" stroke="none" d="M 248 393 C 248 383.6111584 343.81105279999997 376 462 376 C 580.1889472 376 676 383.6111584 676 393 C 676 402.3888416 580.1889472 410 462 410 C 343.81105279999997 410 248 402.3888416 248 393 Z"/></g><g transform="translate(-14,-6) scale(1,1)"><path fill="none" stroke="#ffaa56" d="M 248 393 C 248 383.6111584 343.81105279999997 376 462 376 C 580.1889472 376 676 383.6111584 676 393 C 676 402.3888416 580.1889472 410 462 410 C 343.81105279999997 410 248 402.3888416 248 393 Z" stroke-miterlimit="10"/></g><g transform="translate(-14,-6) scale(1,1)"><g><path fill="none" stroke="none"/><text fill="#000000" stroke="none" font-family="Arial" font-size="13px" font-style="normal" font-weight="bold" text-decoration="none" x="338.5" y="400">report a problem with picture and comment</text></g></g><g transform="translate(-14,-6) scale(1,1)"><rect fill="#C0C0C0" stroke="none" x="903" y="319" width="53.6767578125" height="15" opacity="0.2"/></g><g transform="translate(-14,-6) scale(1,1)"><rect fill="#C0C0C0" stroke="none" x="903" y="333" width="134.19189453125" height="40" opacity="0.2"/></g><g transform="translate(-14,-6) scale(1,1)"><rect fill="#ffffff" stroke="none" x="896" y="327" width="134.19189453125" height="39"/></g><g transform="translate(-14,-6) scale(1,1)"><path fill="none" stroke="#000000" d="M 896 327 L 1030.19189453125 327 L 1030.19189453125 366 L 896 366 L 896 327 Z Z" stroke-miterlimit="10"/></g><g transform="translate(-14,-6) scale(1,1)"><rect fill="#ffffff" stroke="none" x="896" y="312" width="53.6767578125" height="15"/></g><g transform="translate(-14,-6) scale(1,1)"><path fill="none" stroke="#000000" d="M 896 312 L 949.6767578125 312 L 949.6767578125 327 L 896 327 L 896 312 Z Z" stroke-miterlimit="10"/></g><g transform="translate(-14,-6) scale(1,1)"><rect fill="#ffffff" stroke="none" x="896" y="326" width="134.19189453125" height="40"/></g><g transform="translate(-14,-6) scale(1,1)"><path fill="none" stroke="#000000" d="M 896 326 L 1030.19189453125 326 L 1030.19189453125 366 L 896 366 L 896 326 Z Z" stroke-miterlimit="10"/></g><g transform="translate(-14,-6) scale(1,1)"><g><path fill="none" stroke="none"/><text fill="#000000" stroke="none" font-family="Arial" font-size="13px" font-style="normal" font-weight="bold" text-decoration="none" x="910.095947265625" y="346.5">Mobile Application</text></g></g><g transform="translate(-14,-6) scale(1,1)"><g><path fill="none" stroke="none"/><text fill="#000000" stroke="none" font-family="Arial" font-size="13px" font-style="normal" font-weight="normal" text-decoration="none" x="921.595947265625" y="361.5">(from System)</text></g></g><g transform="translate(-14,-6) scale(1,1)"><rect fill="#C0C0C0" stroke="none" x="895" y="127" width="56.995312499999955" height="15" opacity="0.2"/></g><g transform="translate(-14,-6) scale(1,1)"><rect fill="#C0C0C0" stroke="none" x="895" y="141" width="142.48828125" height="40" opacity="0.2"/></g><g transform="translate(-14,-6) scale(1,1)"><rect fill="#ffffff" stroke="none" x="888" y="135" width="142.48828125" height="39"/></g><g transform="translate(-14,-6) scale(1,1)"><path fill="none" stroke="#000000" d="M 888 135 L 1030.48828125 135 L 1030.48828125 174 L 888 174 L 888 135 Z Z" stroke-miterlimit="10"/></g><g transform="translate(-14,-6) scale(1,1)"><rect fill="#ffffff" stroke="none" x="888" y="120" width="56.995312499999955" height="15"/></g><g transform="translate(-14,-6) scale(1,1)"><path fill="none" stroke="#000000" d="M 888 120 L 944.9953125 120 L 944.9953125 135 L 888 135 L 888 120 Z Z" stroke-miterlimit="10"/></g><g transform="translate(-14,-6) scale(1,1)"><rect fill="#ffffff" stroke="none" x="888" y="134" width="142.48828125" height="40"/></g><g transform="translate(-14,-6) scale(1,1)"><path fill="none" stroke="#000000" d="M 888 134 L 1030.48828125 134 L 1030.48828125 174 L 888 174 L 888 134 Z Z" stroke-miterlimit="10"/></g><g transform="translate(-14,-6) scale(1,1)"><g><path fill="none" stroke="none"/><text fill="#000000" stroke="none" font-family="Arial" font-size="13px" font-style="normal" font-weight="bold" text-decoration="none" x="901.744140625" y="154.5">Bluemix Application</text></g></g><g transform="translate(-14,-6) scale(1,1)"><g><path fill="none" stroke="none"/><text fill="#000000" stroke="none" font-family="Arial" font-size="13px" font-style="normal" font-weight="normal" text-decoration="none" x="917.744140625" y="169.5">(from System)</text></g></g><g transform="translate(-14,-6) scale(1,1)"><path fill="none" stroke="#000000" d="M 962 311 L 960 175" stroke-miterlimit="10" stroke-dasharray="3"/></g><g transform="translate(-14,-6) scale(1,1)"><path fill="none" stroke="#000000" d="M 964.3584975915118 185.09967815055438 L 960 175 L 955.9403722946846 185.22347411080185" stroke-miterlimit="10"/></g><g transform="translate(-14,-6) scale(1,1)"><path fill="#C0C0C0" stroke="none" d="M 271 360 C 271 350.6111584 364.5724768 343 480 343 C 595.4275232 343 689 350.6111584 689 360 C 689 369.3888416 595.4275232 377 480 377 C 364.5724768 377 271 369.3888416 271 360 Z" opacity="0.2"/></g><g transform="translate(-14,-6) scale(1,1)"><path fill="#ffeaad" stroke="none" d="M 264 353 C 264 343.6111584 357.5724768 336 473 336 C 588.4275232 336 682 343.6111584 682 353 C 682 362.3888416 588.4275232 370 473 370 C 357.5724768 370 264 362.3888416 264 353 Z"/></g><g transform="translate(-14,-6) scale(1,1)"><path fill="none" stroke="#ffaa56" d="M 264 353 C 264 343.6111584 357.5724768 336 473 336 C 588.4275232 336 682 343.6111584 682 353 C 682 362.3888416 588.4275232 370 473 370 C 357.5724768 370 264 362.3888416 264 353 Z" stroke-miterlimit="10"/></g><g transform="translate(-14,-6) scale(1,1)"><g><path fill="none" stroke="none"/><text fill="#000000" stroke="none" font-family="Arial" font-size="13px" font-style="normal" font-weight="bold" text-decoration="none" x="352" y="360">provide a chart for the filtered sensor data</text></g></g><g transform="translate(-14,-6) scale(1,1)"><path fill="#C0C0C0" stroke="none" d="M 359 520 C 359 510.6111584 402.652232 503 456.5 503 C 510.347768 503 554 510.6111584 554 520 C 554 529.3888416 510.347768 537 456.5 537 C 402.652232 537 359 529.3888416 359 520 Z" opacity="0.2"/></g><g transform="translate(-14,-6) scale(1,1)"><path fill="#ffeaad" stroke="none" d="M 352 513 C 352 503.6111584 395.652232 496 449.5 496 C 503.347768 496 547 503.6111584 547 513 C 547 522.3888416 503.347768 530 449.5 530 C 395.652232 530 352 522.3888416 352 513 Z"/></g><g transform="translate(-14,-6) scale(1,1)"><path fill="none" stroke="#ffaa56" d="M 352 513 C 352 503.6111584 395.652232 496 449.5 496 C 503.347768 496 547 503.6111584 547 513 C 547 522.3888416 503.347768 530 449.5 530 C 395.652232 530 352 522.3888416 352 513 Z" stroke-miterlimit="10"/></g><g transform="translate(-14,-6) scale(1,1)"><g><path fill="none" stroke="none"/><text fill="#000000" stroke="none" font-family="Arial" font-size="13px" font-style="normal" font-weight="bold" text-decoration="none" x="406" y="520">get  driver data</text></g></g><g transform="translate(-14,-6) scale(1,1)"><path fill="none" stroke="#000000" d="M 486 495 L 767 357" stroke-miterlimit="10"/></g><g transform="translate(-14,-6) scale(1,1)"><path fill="#C0C0C0" stroke="none" d="M 351 480 C 351 470.6111584 402.487248 463 466 463 C 529.512752 463 581 470.6111584 581 480 C 581 489.3888416 529.512752 497 466 497 C 402.487248 497 351 489.3888416 351 480 Z" opacity="0.2"/></g><g transform="translate(-14,-6) scale(1,1)"><path fill="#ffeaad" stroke="none" d="M 344 473 C 344 463.6111584 395.487248 456 459 456 C 522.512752 456 574 463.6111584 574 473 C 574 482.3888416 522.512752 490 459 490 C 395.487248 490 344 482.3888416 344 473 Z"/></g><g transform="translate(-14,-6) scale(1,1)"><path fill="none" stroke="#ffaa56" d="M 344 473 C 344 463.6111584 395.487248 456 459 456 C 522.512752 456 574 463.6111584 574 473 C 574 482.3888416 522.512752 490 459 490 C 395.487248 490 344 482.3888416 344 473 Z" stroke-miterlimit="10"/></g><g transform="translate(-14,-6) scale(1,1)"><g><path fill="none" stroke="none"/><text fill="#000000" stroke="none" font-family="Arial" font-size="13px" font-style="normal" font-weight="bold" text-decoration="none" x="394.5" y="480">provide Authentication</text></g></g><g transform="translate(-14,-6) scale(1,1)"><path fill="#C0C0C0" stroke="none" d="M 255 440 C 255 430.6111584 351.0349104 423 469.5 423 C 587.9650896 423 684 430.6111584 684 440 C 684 449.3888416 587.9650896 457 469.5 457 C 351.0349104 457 255 449.3888416 255 440 Z" opacity="0.2"/></g><g transform="translate(-14,-6) scale(1,1)"><path fill="#ffeaad" stroke="none" d="M 248 433 C 248 423.6111584 344.0349104 416 462.5 416 C 580.9650896 416 677 423.6111584 677 433 C 677 442.3888416 580.9650896 450 462.5 450 C 344.0349104 450 248 442.3888416 248 433 Z"/></g><g transform="translate(-14,-6) scale(1,1)"><path fill="none" stroke="#ffaa56" d="M 248 433 C 248 423.6111584 344.0349104 416 462.5 416 C 580.9650896 416 677 423.6111584 677 433 C 677 442.3888416 580.9650896 450 462.5 450 C 344.0349104 450 248 442.3888416 248 433 Z" stroke-miterlimit="10"/></g><g transform="translate(-14,-6) scale(1,1)"><g><path fill="none" stroke="none"/><text fill="#000000" stroke="none" font-family="Arial" font-size="13px" font-style="normal" font-weight="bold" text-decoration="none" x="336.5" y="440">show and update geo location of the sensor</text></g></g></g></svg>