<svg version="1.1" xmlns="http://www.w3.org/2000/svg" xmlns:xlink="http://www.w3.org/1999/xlink" width="1034.48828125" height="674"><defs/><g><g transform="translate(-14,-6) scale(1,1)"><path fill="#ffffff" stroke="none" d="M 99.56511203835227 393.68 C 99.56511203835227 388.886167936 103.45095436329773 385 108.244384765625 385 C 113.03781516795227 385 116.92365749289773 388.886167936 116.92365749289773 393.68 C 116.92365749289773 398.473832064 113.03781516795227 402.36 108.244384765625 402.36 C 103.45095436329773 402.36 99.56511203835227 398.473832064 99.56511203835227 393.68 Z"/></g><g transform="translate(-14,-6) scale(1,1)"><path fill="none" stroke="#000000" d="M 99.56511203835227 393.68 C 99.56511203835227 388.886167936 103.45095436329773 385 108.244384765625 385 C 113.03781516795227 385 116.92365749289773 388.886167936 116.92365749289773 393.68 C 116.92365749289773 398.473832064 113.03781516795227 402.36 108.244384765625 402.36 C 103.45095436329773 402.36 99.56511203835227 398.473832064 99.56511203835227 393.68 Z" stroke-miterlimit="10"/></g><g transform="translate(-14,-6) scale(1,1)"><path fill="none" stroke="#000000" d="M 108.244384765625 402.36 L 108.244384765625 419.64" stroke-miterlimit="10"/></g><g transform="translate(-14,-6) scale(1,1)"><path fill="none" stroke="#000000" d="M 99.05456658380682 408.84 L 117.43420294744318 408.84" stroke-miterlimit="10"/></g><g transform="translate(-14,-6) scale(1,1)"><path fill="none" stroke="#000000" d="M 108.244384765625 419.64 L 95.48074840198863 437" stroke-miterlimit="10"/></g><g transform="translate(-14,-6) scale(1,1)"><path fill="none" stroke="#000000" d="M 108.244384765625 419.64 L 121.00802112926137 437" stroke-miterlimit="10"/></g><g transform="translate(-14,-6) scale(1,1)"><g><path fill="none" stroke="none"/><text fill="#000000" stroke="none" font-family="Arial" font-size="13px" font-style="normal" font-weight="bold" text-decoration="none" x="73.744384765625" y="457.5">Mobile User</text></g></g><g transform="translate(-14,-6) scale(1,1)"><path fill="#ffffff" stroke="none" d="M 104.94694797585227 217.68 C 104.94694797585227 212.886167936 108.83279030079773 209 113.626220703125 209 C 118.41965110545227 209 122.30549343039773 212.886167936 122.30549343039773 217.68 C 122.30549343039773 222.47383206400002 118.41965110545227 226.36 113.626220703125 226.36 C 108.83279030079773 226.36 104.94694797585227 222.47383206400002 104.94694797585227 217.68 Z"/></g><g transform="translate(-14,-6) scale(1,1)"><path fill="none" stroke="#000000" d="M 104.94694797585227 217.68 C 104.94694797585227 212.886167936 108.83279030079773 209 113.626220703125 209 C 118.41965110545227 209 122.30549343039773 212.886167936 122.30549343039773 217.68 C 122.30549343039773 222.47383206400002 118.41965110545227 226.36 113.626220703125 226.36 C 108.83279030079773 226.36 104.94694797585227 222.47383206400002 104.94694797585227 217.68 Z" stroke-miterlimit="10"/></g><g transform="translate(-14,-6) scale(1,1)"><path fill="none" stroke="#000000" d="M 113.626220703125 226.36 L 113.626220703125 243.64" stroke-miterlimit="10"/></g><g transform="translate(-14,-6) scale(1,1)"><path fill="none" stroke="#000000" d="M 104.43640252130682 232.84 L 122.81603888494318 232.84" stroke-miterlimit="10"/></g><g transform="translate(-14,-6) scale(1,1)"><path fill="none" stroke="#000000" d="M 113.626220703125 243.64 L 100.86258433948863 261" stroke-miterlimit="10"/></g><g transform="translate(-14,-6) scale(1,1)"><path fill="none" stroke="#000000" d="M 113.626220703125 243.64 L 126.38985706676137 261" stroke-miterlimit="10"/></g><g transform="translate(-14,-6) scale(1,1)"><g><path fill="none" stroke="none"/><text fill="#000000" stroke="none" font-family="Arial" font-size="13px" font-style="normal" font-weight="bold" text-decoration="none" x="52.126220703125" y="281.5">Admin Backend User</text></g></g><g transform="translate(-14,-6) scale(1,1)"><path fill="#C0C0C0" stroke="none" d="M 207 208 C 207 198.6111584 331.6886832 191 485.5 191 C 639.3113168 191 764 198.6111584 764 208 C 764 217.3888416 639.3113168 225 485.5 225 C 331.6886832 225 207 217.3888416 207 208 Z" opacity="0.2"/></g><g transform="translate(-14,-6) scale(1,1)"><path fill="#a3e0ff" stroke="none" d="M 200 201 C 200 191.6111584 324.6886832 184 478.5 184 C 632.3113168 184 757 191.6111584 757 201 C 757 210.3888416 632.3113168 218 478.5 218 C 324.6886832 218 200 210.3888416 200 201 Z"/></g><g transform="translate(-14,-6) scale(1,1)"><path fill="none" stroke="#91ffec" d="M 200 201 C 200 191.6111584 324.6886832 184 478.5 184 C 632.3113168 184 757 191.6111584 757 201 C 757 210.3888416 632.3113168 218 478.5 218 C 324.6886832 218 200 210.3888416 200 201 Z" stroke-miterlimit="10"/></g><g transform="translate(-14,-6) scale(1,1)"><g><path fill="none" stroke="none"/><text fill="#000000" stroke="none" font-family="Arial" font-size="13px" font-style="normal" font-weight="bold" text-decoration="none" x="377.5" y="208">get sensor data from the IoT Cloud</text></g></g><g transform="translate(-14,-6) scale(1,1)"><path fill="none" stroke="#000000" d="M 188 238 L 335 219" stroke-miterlimit="10"/></g><g transform="translate(-14,-6) scale(1,1)"><path fill="#C0C0C0" stroke="none" d="M 231 280 C 231 270.6111584 361.5089808 263 522.5 263 C 683.4910192 263 814 270.6111584 814 280 C 814 289.3888416 683.4910192 297 522.5 297 C 361.5089808 297 231 289.3888416 231 280 Z" opacity="0.2"/></g><g transform="translate(-14,-6) scale(1,1)"><path fill="#a3e0ff" stroke="none" d="M 224 273 C 224 263.6111584 354.5089808 256 515.5 256 C 676.4910192 256 807 263.6111584 807 273 C 807 282.3888416 676.4910192 290 515.5 290 C 354.5089808 290 224 282.3888416 224 273 Z"/></g><g transform="translate(-14,-6) scale(1,1)"><path fill="none" stroke="#91ffec" d="M 224 273 C 224 263.6111584 354.5089808 256 515.5 256 C 676.4910192 256 807 263.6111584 807 273 C 807 282.3888416 676.4910192 290 515.5 290 C 354.5089808 290 224 282.3888416 224 273 Z" stroke-miterlimit="10"/></g><g transform="translate(-14,-6) scale(1,1)"><g><path fill="none" stroke="none"/><text fill="#000000" stroke="none" font-family="Arial" font-size="13px" font-style="normal" font-weight="bold" text-decoration="none" x="344.5" y="280">get a audio information about the actual temperature status</text></g></g><g transform="translate(-14,-6) scale(1,1)"><path fill="none" stroke="#000000" d="M 188 252 L 237 255" stroke-miterlimit="10"/></g><g transform="translate(-14,-6) scale(1,1)"><path fill="#ffffff" stroke="none" d="M 822.3634518821023 209.68 C 822.3634518821023 204.886167936 826.2492942070477 201 831.042724609375 201 C 835.8361550117023 201 839.7219973366477 204.886167936 839.7219973366477 209.68 C 839.7219973366477 214.47383206400002 835.8361550117023 218.36 831.042724609375 218.36 C 826.2492942070477 218.36 822.3634518821023 214.47383206400002 822.3634518821023 209.68 Z"/></g><g transform="translate(-14,-6) scale(1,1)"><path fill="none" stroke="#000000" d="M 822.3634518821023 209.68 C 822.3634518821023 204.886167936 826.2492942070477 201 831.042724609375 201 C 835.8361550117023 201 839.7219973366477 204.886167936 839.7219973366477 209.68 C 839.7219973366477 214.47383206400002 835.8361550117023 218.36 831.042724609375 218.36 C 826.2492942070477 218.36 822.3634518821023 214.47383206400002 822.3634518821023 209.68 Z" stroke-miterlimit="10"/></g><g transform="translate(-14,-6) scale(1,1)"><path fill="none" stroke="#000000" d="M 831.042724609375 218.36 L 831.042724609375 235.64" stroke-miterlimit="10"/></g><g transform="translate(-14,-6) scale(1,1)"><path fill="none" stroke="#000000" d="M 821.8529064275568 224.84 L 840.2325427911932 224.84" stroke-miterlimit="10"/></g><g transform="translate(-14,-6) scale(1,1)"><path fill="none" stroke="#000000" d="M 831.042724609375 235.64 L 818.2790882457386 253" stroke-miterlimit="10"/></g><g transform="translate(-14,-6) scale(1,1)"><path fill="none" stroke="#000000" d="M 831.042724609375 235.64 L 843.8063609730114 253" stroke-miterlimit="10"/></g><g transform="translate(-14,-6) scale(1,1)"><g><path fill="none" stroke="none"/><text fill="#000000" stroke="none" font-family="Arial" font-size="13px" font-style="normal" font-weight="bold" text-decoration="none" x="807.542724609375" y="273.5">Bluemix</text></g></g><g transform="translate(-14,-6) scale(1,1)"><path fill="none" stroke="#000000" d="M 645 219 L 799 236" stroke-miterlimit="10"/></g><g transform="translate(-14,-6) scale(1,1)"><path fill="none" stroke="#000000" d="M 682 255 L 799 242" stroke-miterlimit="10"/></g><g transform="translate(-14,-6) scale(1,1)"><path fill="#C0C0C0" stroke="none" d="M 351 632 C 351 622.6111584 397.5623808 615 455 615 C 512.4376192 615 559 622.6111584 559 632 C 559 641.3888416 512.4376192 649 455 649 C 397.5623808 649 351 641.3888416 351 632 Z" opacity="0.2"/></g><g transform="translate(-14,-6) scale(1,1)"><path fill="#ffeaad" stroke="none" d="M 344 625 C 344 615.6111584 390.5623808 608 448 608 C 505.4376192 608 552 615.6111584 552 625 C 552 634.3888416 505.4376192 642 448 642 C 390.5623808 642 344 634.3888416 344 625 Z"/></g><g transform="translate(-14,-6) scale(1,1)"><path fill="none" stroke="#ffaa56" d="M 344 625 C 344 615.6111584 390.5623808 608 448 608 C 505.4376192 608 552 615.6111584 552 625 C 552 634.3888416 505.4376192 642 448 642 C 390.5623808 642 344 634.3888416 344 625 Z" stroke-miterlimit="10"/></g><g transform="translate(-14,-6) scale(1,1)"><g><path fill="none" stroke="none"/><text fill="#000000" stroke="none" font-family="Arial" font-size="13px" font-style="normal" font-weight="bold" text-decoration="none" x="400" y="632">get driver details</text></g></g><g transform="translate(-14,-6) scale(1,1)"><path fill="#C0C0C0" stroke="none" d="M 351 352 C 351 342.6111584 399.3532416 335 459 335 C 518.6467584 335 567 342.6111584 567 352 C 567 361.3888416 518.6467584 369 459 369 C 399.3532416 369 351 361.3888416 351 352 Z" opacity="0.2"/></g><g transform="translate(-14,-6) scale(1,1)"><path fill="#ffeaad" stroke="none" d="M 344 345 C 344 335.6111584 392.3532416 328 452 328 C 511.6467584 328 560 335.6111584 560 345 C 560 354.3888416 511.6467584 362 452 362 C 392.3532416 362 344 354.3888416 344 345 Z"/></g><g transform="translate(-14,-6) scale(1,1)"><path fill="none" stroke="#ffaa56" d="M 344 345 C 344 335.6111584 392.3532416 328 452 328 C 511.6467584 328 560 335.6111584 560 345 C 560 354.3888416 511.6467584 362 452 362 C 392.3532416 362 344 354.3888416 344 345 Z" stroke-miterlimit="10"/></g><g transform="translate(-14,-6) scale(1,1)"><g><path fill="none" stroke="none"/><text fill="#000000" stroke="none" font-family="Arial" font-size="13px" font-style="normal" font-weight="bold" text-decoration="none" x="407" y="352">get sensor data</text></g></g><g transform="translate(-14,-6) scale(1,1)"><path fill="#C0C0C0" stroke="none" d="M 351 392 C 351 382.6111584 397.5623808 375 455 375 C 512.4376192 375 559 382.6111584 559 392 C 559 401.3888416 512.4376192 409 455 409 C 397.5623808 409 351 401.3888416 351 392 Z" opacity="0.2"/></g><g transform="translate(-14,-6) scale(1,1)"><path fill="#ffeaad" stroke="none" d="M 344 385 C 344 375.6111584 390.5623808 368 448 368 C 505.4376192 368 552 375.6111584 552 385 C 552 394.3888416 505.4376192 402 448 402 C 390.5623808 402 344 394.3888416 344 385 Z"/></g><g transform="translate(-14,-6) scale(1,1)"><path fill="none" stroke="#ffaa56" d="M 344 385 C 344 375.6111584 390.5623808 368 448 368 C 505.4376192 368 552 375.6111584 552 385 C 552 394.3888416 505.4376192 402 448 402 C 390.5623808 402 344 394.3888416 344 385 Z" stroke-miterlimit="10"/></g><g transform="translate(-14,-6) scale(1,1)"><g><path fill="none" stroke="none"/><text fill="#000000" stroke="none" font-family="Arial" font-size="13px" font-style="normal" font-weight="bold" text-decoration="none" x="399.5" y="392">filter sensor data</text></g></g><g transform="translate(-14,-6) scale(1,1)"><path fill="none" stroke="#000000" d="M 153 439 L 407 527" stroke-miterlimit="10"/></g><g transform="translate(-14,-6) scale(1,1)"><path fill="none" stroke="#000000" d="M 153 445 L 411 567" stroke-miterlimit="10"/></g><g transform="translate(-14,-6) scale(1,1)"><path fill="none" stroke="#000000" d="M 153 450 L 418 607" stroke-miterlimit="10"/></g><g transform="translate(-14,-6) scale(1,1)"><path fill="none" stroke="#000000" d="M 153 413 L 373 363" stroke-miterlimit="10"/></g><g transform="translate(-14,-6) scale(1,1)"><path fill="none" stroke="#000000" d="M 153 418 L 343 397" stroke-miterlimit="10"/></g><g transform="translate(-14,-6) scale(1,1)"><path fill="none" stroke="#000000" d="M 153 423 L 263 424" stroke-miterlimit="10"/></g><g transform="translate(-14,-6) scale(1,1)"><path fill="#ffffff" stroke="none" d="M 819.4508542258523 377.68 C 819.4508542258523 372.886167936 823.3366965507977 369 828.130126953125 369 C 832.9235573554523 369 836.8093996803977 372.886167936 836.8093996803977 377.68 C 836.8093996803977 382.473832064 832.9235573554523 386.36 828.130126953125 386.36 C 823.3366965507977 386.36 819.4508542258523 382.473832064 819.4508542258523 377.68 Z"/></g><g transform="translate(-14,-6) scale(1,1)"><path fill="none" stroke="#000000" d="M 819.4508542258523 377.68 C 819.4508542258523 372.886167936 823.3366965507977 369 828.130126953125 369 C 832.9235573554523 369 836.8093996803977 372.886167936 836.8093996803977 377.68 C 836.8093996803977 382.473832064 832.9235573554523 386.36 828.130126953125 386.36 C 823.3366965507977 386.36 819.4508542258523 382.473832064 819.4508542258523 377.68 Z" stroke-miterlimit="10"/></g><g transform="translate(-14,-6) scale(1,1)"><path fill="none" stroke="#000000" d="M 828.130126953125 386.36 L 828.130126953125 403.64" stroke-miterlimit="10"/></g><g transform="translate(-14,-6) scale(1,1)"><path fill="none" stroke="#000000" d="M 818.9403087713068 392.84 L 837.3199451349432 392.84" stroke-miterlimit="10"/></g><g transform="translate(-14,-6) scale(1,1)"><path fill="none" stroke="#000000" d="M 828.130126953125 403.64 L 815.3664905894886 421" stroke-miterlimit="10"/></g><g transform="translate(-14,-6) scale(1,1)"><path fill="none" stroke="#000000" d="M 828.130126953125 403.64 L 840.8937633167614 421" stroke-miterlimit="10"/></g><g transform="translate(-14,-6) scale(1,1)"><g><path fill="none" stroke="none"/><text fill="#000000" stroke="none" font-family="Arial" font-size="13px" font-style="normal" font-weight="bold" text-decoration="none" x="794.130126953125" y="441.5">Mobile First</text></g></g><g transform="translate(-14,-6) scale(1,1)"><path fill="none" stroke="#000000" d="M 507 527 L 783 424" stroke-miterlimit="10"/></g><g transform="translate(-14,-6) scale(1,1)"><path fill="none" stroke="#000000" d="M 561 363 L 783 400" stroke-miterlimit="10"/></g><g transform="translate(-14,-6) scale(1,1)"><path fill="none" stroke="#000000" d="M 553 391 L 783 404" stroke-miterlimit="10"/></g><g transform="translate(-14,-6) scale(1,1)"><path fill="none" stroke="#000000" d="M 153 406 L 466 291" stroke-miterlimit="10"/></g><g transform="translate(-14,-6) scale(1,1)"><g><path fill="none" stroke="none"/><text fill="#000000" stroke="none" font-family="Arial" font-size="22px" font-style="normal" font-weight="normal" text-decoration="none" x="29" y="43">Overview Sample UseCases</text></g></g><g transform="translate(-14,-6) scale(1,1)"><path fill="none" stroke="#000000" d="M 153 428 L 310 447" stroke-miterlimit="10"/></g><g transform="translate(-14,-6) scale(1,1)"><path fill="none" stroke="#000000" d="M 153 434 L 384 487" stroke-miterlimit="10"/></g><g transform="translate(-14,-6) scale(1,1)"><path fill="none" stroke="#000000" d="M 529 487 L 783 419" stroke-miterlimit="10"/></g><g transform="translate(-14,-6) scale(1,1)"><path fill="none" stroke="#000000" d="M 576 447 L 783 414" stroke-miterlimit="10"/></g><g transform="translate(-14,-6) scale(1,1)"><path fill="#C0C0C0" stroke="none" d="M 255 472 C 255 462.6111584 350.81105279999997 455 469 455 C 587.1889472 455 683 462.6111584 683 472 C 683 481.3888416 587.1889472 489 469 489 C 350.81105279999997 489 255 481.3888416 255 472 Z" opacity="0.2"/></g><g transform="translate(-14,-6) scale(1,1)"><path fill="#ffeaad" stroke="none" d="M 248 465 C 248 455.6111584 343.81105279999997 448 462 448 C 580.1889472 448 676 455.6111584 676 465 C 676 474.3888416 580.1889472 482 462 482 C 343.81105279999997 482 248 474.3888416 248 465 Z"/></g><g transform="translate(-14,-6) scale(1,1)"><path fill="none" stroke="#ffaa56" d="M 248 465 C 248 455.6111584 343.81105279999997 448 462 448 C 580.1889472 448 676 455.6111584 676 465 C 676 474.3888416 580.1889472 482 462 482 C 343.81105279999997 482 248 474.3888416 248 465 Z" stroke-miterlimit="10"/></g><g transform="translate(-14,-6) scale(1,1)"><g><path fill="none" stroke="none"/><text fill="#000000" stroke="none" font-family="Arial" font-size="13px" font-style="normal" font-weight="bold" text-decoration="none" x="338.5" y="472">report a problem with picture and comment</text></g></g><g transform="translate(-14,-6) scale(1,1)"><rect fill="#C0C0C0" stroke="none" x="903" y="391" width="53.6767578125" height="15" opacity="0.2"/></g><g transform="translate(-14,-6) scale(1,1)"><rect fill="#C0C0C0" stroke="none" x="903" y="405" width="134.19189453125" height="40" opacity="0.2"/></g><g transform="translate(-14,-6) scale(1,1)"><rect fill="#ffffff" stroke="none" x="896" y="399" width="134.19189453125" height="39"/></g><g transform="translate(-14,-6) scale(1,1)"><path fill="none" stroke="#000000" d="M 896 399 L 1030.19189453125 399 L 1030.19189453125 438 L 896 438 L 896 399 Z Z" stroke-miterlimit="10"/></g><g transform="translate(-14,-6) scale(1,1)"><rect fill="#ffffff" stroke="none" x="896" y="384" width="53.6767578125" height="15"/></g><g transform="translate(-14,-6) scale(1,1)"><path fill="none" stroke="#000000" d="M 896 384 L 949.6767578125 384 L 949.6767578125 399 L 896 399 L 896 384 Z Z" stroke-miterlimit="10"/></g><g transform="translate(-14,-6) scale(1,1)"><rect fill="#ffffff" stroke="none" x="896" y="398" width="134.19189453125" height="40"/></g><g transform="translate(-14,-6) scale(1,1)"><path fill="none" stroke="#000000" d="M 896 398 L 1030.19189453125 398 L 1030.19189453125 438 L 896 438 L 896 398 Z Z" stroke-miterlimit="10"/></g><g transform="translate(-14,-6) scale(1,1)"><g><path fill="none" stroke="none"/><text fill="#000000" stroke="none" font-family="Arial" font-size="13px" font-style="normal" font-weight="bold" text-decoration="none" x="910.095947265625" y="418.5">Mobile Application</text></g></g><g transform="translate(-14,-6) scale(1,1)"><g><path fill="none" stroke="none"/><text fill="#000000" stroke="none" font-family="Arial" font-size="13px" font-style="normal" font-weight="normal" text-decoration="none" x="921.595947265625" y="433.5">(from System)</text></g></g><g transform="translate(-14,-6) scale(1,1)"><rect fill="#C0C0C0" stroke="none" x="903" y="215" width="56.995312499999955" height="15" opacity="0.2"/></g><g transform="translate(-14,-6) scale(1,1)"><rect fill="#C0C0C0" stroke="none" x="903" y="229" width="142.48828125" height="40" opacity="0.2"/></g><g transform="translate(-14,-6) scale(1,1)"><rect fill="#ffffff" stroke="none" x="896" y="223" width="142.48828125" height="39"/></g><g transform="translate(-14,-6) scale(1,1)"><path fill="none" stroke="#000000" d="M 896 223 L 1038.48828125 223 L 1038.48828125 262 L 896 262 L 896 223 Z Z" stroke-miterlimit="10"/></g><g transform="translate(-14,-6) scale(1,1)"><rect fill="#ffffff" stroke="none" x="896" y="208" width="56.995312499999955" height="15"/></g><g transform="translate(-14,-6) scale(1,1)"><path fill="none" stroke="#000000" d="M 896 208 L 952.9953125 208 L 952.9953125 223 L 896 223 L 896 208 Z Z" stroke-miterlimit="10"/></g><g transform="translate(-14,-6) scale(1,1)"><rect fill="#ffffff" stroke="none" x="896" y="222" width="142.48828125" height="40"/></g><g transform="translate(-14,-6) scale(1,1)"><path fill="none" stroke="#000000" d="M 896 222 L 1038.48828125 222 L 1038.48828125 262 L 896 262 L 896 222 Z Z" stroke-miterlimit="10"/></g><g transform="translate(-14,-6) scale(1,1)"><g><path fill="none" stroke="none"/><text fill="#000000" stroke="none" font-family="Arial" font-size="13px" font-style="normal" font-weight="bold" text-decoration="none" x="909.744140625" y="242.5">Bluemix Application</text></g></g><g transform="translate(-14,-6) scale(1,1)"><g><path fill="none" stroke="none"/><text fill="#000000" stroke="none" font-family="Arial" font-size="13px" font-style="normal" font-weight="normal" text-decoration="none" x="925.744140625" y="257.5">(from System)</text></g></g><g transform="translate(-14,-6) scale(1,1)"><path fill="none" stroke="#000000" d="M 964 383 L 966 263" stroke-miterlimit="10" stroke-dasharray="3"/></g><g transform="translate(-14,-6) scale(1,1)"><path fill="none" stroke="#000000" d="M 970.0395788280638 273.2314125560383 L 966 263 L 961.6217123829697 273.0911147819534" stroke-miterlimit="10"/></g><g transform="translate(-14,-6) scale(1,1)"><path fill="#C0C0C0" stroke="none" d="M 271 432 C 271 422.6111584 364.5724768 415 480 415 C 595.4275232 415 689 422.6111584 689 432 C 689 441.3888416 595.4275232 449 480 449 C 364.5724768 449 271 441.3888416 271 432 Z" opacity="0.2"/></g><g transform="translate(-14,-6) scale(1,1)"><path fill="#ffeaad" stroke="none" d="M 264 425 C 264 415.6111584 357.5724768 408 473 408 C 588.4275232 408 682 415.6111584 682 425 C 682 434.3888416 588.4275232 442 473 442 C 357.5724768 442 264 434.3888416 264 425 Z"/></g><g transform="translate(-14,-6) scale(1,1)"><path fill="none" stroke="#ffaa56" d="M 264 425 C 264 415.6111584 357.5724768 408 473 408 C 588.4275232 408 682 415.6111584 682 425 C 682 434.3888416 588.4275232 442 473 442 C 357.5724768 442 264 434.3888416 264 425 Z" stroke-miterlimit="10"/></g><g transform="translate(-14,-6) scale(1,1)"><g><path fill="none" stroke="none"/><text fill="#000000" stroke="none" font-family="Arial" font-size="13px" font-style="normal" font-weight="bold" text-decoration="none" x="352" y="432">provide a chart for the filtered sensor data</text></g></g><g transform="translate(-14,-6) scale(1,1)"><path fill="#C0C0C0" stroke="none" d="M 359 592 C 359 582.6111584 402.652232 575 456.5 575 C 510.347768 575 554 582.6111584 554 592 C 554 601.3888416 510.347768 609 456.5 609 C 402.652232 609 359 601.3888416 359 592 Z" opacity="0.2"/></g><g transform="translate(-14,-6) scale(1,1)"><path fill="#ffeaad" stroke="none" d="M 352 585 C 352 575.6111584 395.652232 568 449.5 568 C 503.347768 568 547 575.6111584 547 585 C 547 594.3888416 503.347768 602 449.5 602 C 395.652232 602 352 594.3888416 352 585 Z"/></g><g transform="translate(-14,-6) scale(1,1)"><path fill="none" stroke="#ffaa56" d="M 352 585 C 352 575.6111584 395.652232 568 449.5 568 C 503.347768 568 547 575.6111584 547 585 C 547 594.3888416 503.347768 602 449.5 602 C 395.652232 602 352 594.3888416 352 585 Z" stroke-miterlimit="10"/></g><g transform="translate(-14,-6) scale(1,1)"><g><path fill="none" stroke="none"/><text fill="#000000" stroke="none" font-family="Arial" font-size="13px" font-style="normal" font-weight="bold" text-decoration="none" x="406" y="592">get  driver data</text></g></g><g transform="translate(-14,-6) scale(1,1)"><path fill="none" stroke="#000000" d="M 487 567 L 783 428" stroke-miterlimit="10"/></g><g transform="translate(-14,-6) scale(1,1)"><path fill="#C0C0C0" stroke="none" d="M 351 552 C 351 542.6111584 402.487248 535 466 535 C 529.512752 535 581 542.6111584 581 552 C 581 561.3888416 529.512752 569 466 569 C 402.487248 569 351 561.3888416 351 552 Z" opacity="0.2"/></g><g transform="translate(-14,-6) scale(1,1)"><path fill="#ffeaad" stroke="none" d="M 344 545 C 344 535.6111584 395.487248 528 459 528 C 522.512752 528 574 535.6111584 574 545 C 574 554.3888416 522.512752 562 459 562 C 395.487248 562 344 554.3888416 344 545 Z"/></g><g transform="translate(-14,-6) scale(1,1)"><path fill="none" stroke="#ffaa56" d="M 344 545 C 344 535.6111584 395.487248 528 459 528 C 522.512752 528 574 535.6111584 574 545 C 574 554.3888416 522.512752 562 459 562 C 395.487248 562 344 554.3888416 344 545 Z" stroke-miterlimit="10"/></g><g transform="translate(-14,-6) scale(1,1)"><g><path fill="none" stroke="none"/><text fill="#000000" stroke="none" font-family="Arial" font-size="13px" font-style="normal" font-weight="bold" text-decoration="none" x="394.5" y="552">provide Authentication</text></g></g><g transform="translate(-14,-6) scale(1,1)"><path fill="#C0C0C0" stroke="none" d="M 255 512 C 255 502.6111584 351.0349104 495 469.5 495 C 587.9650896 495 684 502.6111584 684 512 C 684 521.3888416 587.9650896 529 469.5 529 C 351.0349104 529 255 521.3888416 255 512 Z" opacity="0.2"/></g><g transform="translate(-14,-6) scale(1,1)"><path fill="#ffeaad" stroke="none" d="M 248 505 C 248 495.6111584 344.0349104 488 462.5 488 C 580.9650896 488 677 495.6111584 677 505 C 677 514.3888416 580.9650896 522 462.5 522 C 344.0349104 522 248 514.3888416 248 505 Z"/></g><g transform="translate(-14,-6) scale(1,1)"><path fill="none" stroke="#ffaa56" d="M 248 505 C 248 495.6111584 344.0349104 488 462.5 488 C 580.9650896 488 677 495.6111584 677 505 C 677 514.3888416 580.9650896 522 462.5 522 C 344.0349104 522 248 514.3888416 248 505 Z" stroke-miterlimit="10"/></g><g transform="translate(-14,-6) scale(1,1)"><g><path fill="none" stroke="none"/><text fill="#000000" stroke="none" font-family="Arial" font-size="13px" font-style="normal" font-weight="bold" text-decoration="none" x="336.5" y="512">show and update geo location of the sensor</text></g></g><g transform="translate(-14,-6) scale(1,1)"><rect fill="#ffffff" stroke="none" x="48" y="648" width="231.21923828125" height="22"/></g><g transform="translate(-14,-6) scale(1,1)"><path fill="none" stroke="#000000" d="M 48 648 L 279.21923828125 648 L 279.21923828125 670 L 48 670 L 48 648 Z Z" stroke-miterlimit="10"/></g><g transform="translate(-14,-6) scale(1,1)"><path fill="none" stroke="#000000" d="M 81 648 L 81 670" stroke-miterlimit="10"/></g><g transform="translate(-14,-6) scale(1,1)"><g><path fill="none" stroke="none"/><text fill="#000000" stroke="none" font-family="Arial" font-size="13px" font-style="normal" font-weight="normal" text-decoration="none" x="85.5" y="665.5">Overview UseCase Realizations</text></g></g><g transform="translate(-14,-6) scale(1,1)"><g><path fill="none" stroke="none"/><text fill="#000000" stroke="none" font-family="Arial" font-size="13px" font-style="normal" font-weight="bold" text-decoration="none" x="54.5" y="665.5">link</text></g></g><g transform="translate(-14,-6) scale(1,1)"><path fill="#ffffff" stroke="none" d="M 818.3207272727273 113.68 C 818.3207272727273 108.886167936 822.2065695976727 105 827 105 C 831.7934304023273 105 835.6792727272727 108.886167936 835.6792727272727 113.68 C 835.6792727272727 118.473832064 831.7934304023273 122.36 827 122.36 C 822.2065695976727 122.36 818.3207272727273 118.473832064 818.3207272727273 113.68 Z"/></g><g transform="translate(-14,-6) scale(1,1)"><path fill="none" stroke="#000000" d="M 818.3207272727273 113.68 C 818.3207272727273 108.886167936 822.2065695976727 105 827 105 C 831.7934304023273 105 835.6792727272727 108.886167936 835.6792727272727 113.68 C 835.6792727272727 118.473832064 831.7934304023273 122.36 827 122.36 C 822.2065695976727 122.36 818.3207272727273 118.473832064 818.3207272727273 113.68 Z" stroke-miterlimit="10"/></g><g transform="translate(-14,-6) scale(1,1)"><path fill="none" stroke="#000000" d="M 827 122.36 L 827 139.64" stroke-miterlimit="10"/></g><g transform="translate(-14,-6) scale(1,1)"><path fill="none" stroke="#000000" d="M 817.8101818181818 128.84 L 836.1898181818182 128.84" stroke-miterlimit="10"/></g><g transform="translate(-14,-6) scale(1,1)"><path fill="none" stroke="#000000" d="M 827 139.64 L 814.2363636363636 157" stroke-miterlimit="10"/></g><g transform="translate(-14,-6) scale(1,1)"><path fill="none" stroke="#000000" d="M 827 139.64 L 839.7636363636364 157" stroke-miterlimit="10"/></g><g transform="translate(-14,-6) scale(1,1)"><g><path fill="none" stroke="none"/><text fill="#000000" stroke="none" font-family="Arial" font-size="13px" font-style="normal" font-weight="bold" text-decoration="none" x="799" y="177.5">IoT Cloud</text></g></g><g transform="translate(-14,-6) scale(1,1)"><path fill="#C0C0C0" stroke="none" d="M 223 144 C 223 134.6111584 347.6886832 127 501.5 127 C 655.3113168 127 780 134.6111584 780 144 C 780 153.3888416 655.3113168 161 501.5 161 C 347.6886832 161 223 153.3888416 223 144 Z" opacity="0.2"/></g><g transform="translate(-14,-6) scale(1,1)"><path fill="#a3e0ff" stroke="none" d="M 216 137 C 216 127.6111584 340.6886832 120 494.5 120 C 648.3113168 120 773 127.6111584 773 137 C 773 146.3888416 648.3113168 154 494.5 154 C 340.6886832 154 216 146.3888416 216 137 Z"/></g><g transform="translate(-14,-6) scale(1,1)"><path fill="none" stroke="#91ffec" d="M 216 137 C 216 127.6111584 340.6886832 120 494.5 120 C 648.3113168 120 773 127.6111584 773 137 C 773 146.3888416 648.3113168 154 494.5 154 C 340.6886832 154 216 146.3888416 216 137 Z" stroke-miterlimit="10"/></g><g transform="translate(-14,-6) scale(1,1)"><g><path fill="none" stroke="none"/><text fill="#000000" stroke="none" font-family="Arial" font-size="13px" font-style="normal" font-weight="bold" text-decoration="none" x="393.5" y="144">get sensor data from the IoT Cloud</text></g></g><g transform="translate(-14,-6) scale(1,1)"><path fill="none" stroke="#000000" d="M 774 142 L 791 142" stroke-miterlimit="10"/></g></g></svg>