<svg version="1.1" xmlns="http://www.w3.org/2000/svg" xmlns:xlink="http://www.w3.org/1999/xlink" width="1050.48828125" height="682"><defs/><g><g transform="translate(2,2) scale(1,1)"><path fill="#ffffff" stroke="none" d="M 67.56511203835227 393.68 C 67.56511203835227 388.886167936 71.45095436329773 385 76.244384765625 385 C 81.03781516795227 385 84.92365749289773 388.886167936 84.92365749289773 393.68 C 84.92365749289773 398.473832064 81.03781516795227 402.36 76.244384765625 402.36 C 71.45095436329773 402.36 67.56511203835227 398.473832064 67.56511203835227 393.68 Z"/></g><g transform="translate(2,2) scale(1,1)"><path fill="none" stroke="#000000" d="M 67.56511203835227 393.68 C 67.56511203835227 388.886167936 71.45095436329773 385 76.244384765625 385 C 81.03781516795227 385 84.92365749289773 388.886167936 84.92365749289773 393.68 C 84.92365749289773 398.473832064 81.03781516795227 402.36 76.244384765625 402.36 C 71.45095436329773 402.36 67.56511203835227 398.473832064 67.56511203835227 393.68 Z" stroke-miterlimit="10"/></g><g transform="translate(2,2) scale(1,1)"><path fill="none" stroke="#000000" d="M 76.244384765625 402.36 L 76.244384765625 419.64" stroke-miterlimit="10"/></g><g transform="translate(2,2) scale(1,1)"><path fill="none" stroke="#000000" d="M 67.05456658380682 408.84 L 85.43420294744318 408.84" stroke-miterlimit="10"/></g><g transform="translate(2,2) scale(1,1)"><path fill="none" stroke="#000000" d="M 76.244384765625 419.64 L 63.480748401988635 437" stroke-miterlimit="10"/></g><g transform="translate(2,2) scale(1,1)"><path fill="none" stroke="#000000" d="M 76.244384765625 419.64 L 89.00802112926137 437" stroke-miterlimit="10"/></g><g transform="translate(2,2) scale(1,1)"><g><path fill="none" stroke="none"/><text fill="#000000" stroke="none" font-family="Arial" font-size="13px" font-style="normal" font-weight="bold" text-decoration="none" x="41.744384765625" y="457.5">Mobile User</text></g></g><g transform="translate(2,2) scale(1,1)"><path fill="#ffffff" stroke="none" d="M 72.94694797585227 241.68 C 72.94694797585227 236.886167936 76.83279030079773 233 81.626220703125 233 C 86.41965110545227 233 90.30549343039773 236.886167936 90.30549343039773 241.68 C 90.30549343039773 246.47383206400002 86.41965110545227 250.36 81.626220703125 250.36 C 76.83279030079773 250.36 72.94694797585227 246.47383206400002 72.94694797585227 241.68 Z"/></g><g transform="translate(2,2) scale(1,1)"><path fill="none" stroke="#000000" d="M 72.94694797585227 241.68 C 72.94694797585227 236.886167936 76.83279030079773 233 81.626220703125 233 C 86.41965110545227 233 90.30549343039773 236.886167936 90.30549343039773 241.68 C 90.30549343039773 246.47383206400002 86.41965110545227 250.36 81.626220703125 250.36 C 76.83279030079773 250.36 72.94694797585227 246.47383206400002 72.94694797585227 241.68 Z" stroke-miterlimit="10"/></g><g transform="translate(2,2) scale(1,1)"><path fill="none" stroke="#000000" d="M 81.626220703125 250.36 L 81.626220703125 267.64" stroke-miterlimit="10"/></g><g transform="translate(2,2) scale(1,1)"><path fill="none" stroke="#000000" d="M 72.43640252130682 256.84 L 90.81603888494318 256.84" stroke-miterlimit="10"/></g><g transform="translate(2,2) scale(1,1)"><path fill="none" stroke="#000000" d="M 81.626220703125 267.64 L 68.86258433948863 285" stroke-miterlimit="10"/></g><g transform="translate(2,2) scale(1,1)"><path fill="none" stroke="#000000" d="M 81.626220703125 267.64 L 94.38985706676137 285" stroke-miterlimit="10"/></g><g transform="translate(2,2) scale(1,1)"><g><path fill="none" stroke="none"/><text fill="#000000" stroke="none" font-family="Arial" font-size="13px" font-style="normal" font-weight="bold" text-decoration="none" x="20.126220703125" y="305.5">Admin Backend User</text></g></g><g transform="translate(2,2) scale(1,1)"><path fill="#C0C0C0" stroke="none" d="M 191 272 C 191 262.6111584 321.5089808 255 482.5 255 C 643.4910192 255 774 262.6111584 774 272 C 774 281.3888416 643.4910192 289 482.5 289 C 321.5089808 289 191 281.3888416 191 272 Z" opacity="0.2"/></g><g transform="translate(2,2) scale(1,1)"><path fill="#a3e0ff" stroke="none" d="M 184 265 C 184 255.6111584 314.5089808 248 475.5 248 C 636.4910192 248 767 255.6111584 767 265 C 767 274.3888416 636.4910192 282 475.5 282 C 314.5089808 282 184 274.3888416 184 265 Z"/></g><g transform="translate(2,2) scale(1,1)"><path fill="none" stroke="#91ffec" d="M 184 265 C 184 255.6111584 314.5089808 248 475.5 248 C 636.4910192 248 767 255.6111584 767 265 C 767 274.3888416 636.4910192 282 475.5 282 C 314.5089808 282 184 274.3888416 184 265 Z" stroke-miterlimit="10"/></g><g transform="translate(2,2) scale(1,1)"><g><path fill="none" stroke="none"/><text fill="#000000" stroke="none" font-family="Arial" font-size="13px" font-style="normal" font-weight="bold" text-decoration="none" x="304.5" y="272">get a audio information about the actual temperature status</text></g></g><g transform="translate(2,2) scale(1,1)"><path fill="none" stroke="#000000" d="M 156 270 L 183 269" stroke-miterlimit="10"/></g><g transform="translate(2,2) scale(1,1)"><path fill="#C0C0C0" stroke="none" d="M 351 632 C 351 622.6111584 397.5623808 615 455 615 C 512.4376192 615 559 622.6111584 559 632 C 559 641.3888416 512.4376192 649 455 649 C 397.5623808 649 351 641.3888416 351 632 Z" opacity="0.2"/></g><g transform="translate(2,2) scale(1,1)"><path fill="#ffeaad" stroke="none" d="M 344 625 C 344 615.6111584 390.5623808 608 448 608 C 505.4376192 608 552 615.6111584 552 625 C 552 634.3888416 505.4376192 642 448 642 C 390.5623808 642 344 634.3888416 344 625 Z"/></g><g transform="translate(2,2) scale(1,1)"><path fill="none" stroke="#ffaa56" d="M 344 625 C 344 615.6111584 390.5623808 608 448 608 C 505.4376192 608 552 615.6111584 552 625 C 552 634.3888416 505.4376192 642 448 642 C 390.5623808 642 344 634.3888416 344 625 Z" stroke-miterlimit="10"/></g><g transform="translate(2,2) scale(1,1)"><g><path fill="none" stroke="none"/><text fill="#000000" stroke="none" font-family="Arial" font-size="13px" font-style="normal" font-weight="bold" text-decoration="none" x="400" y="632">get driver details</text></g></g><g transform="translate(2,2) scale(1,1)"><path fill="#C0C0C0" stroke="none" d="M 351 352 C 351 342.6111584 399.3532416 335 459 335 C 518.6467584 335 567 342.6111584 567 352 C 567 361.3888416 518.6467584 369 459 369 C 399.3532416 369 351 361.3888416 351 352 Z" opacity="0.2"/></g><g transform="translate(2,2) scale(1,1)"><path fill="#ffeaad" stroke="none" d="M 344 345 C 344 335.6111584 392.3532416 328 452 328 C 511.6467584 328 560 335.6111584 560 345 C 560 354.3888416 511.6467584 362 452 362 C 392.3532416 362 344 354.3888416 344 345 Z"/></g><g transform="translate(2,2) scale(1,1)"><path fill="none" stroke="#ffaa56" d="M 344 345 C 344 335.6111584 392.3532416 328 452 328 C 511.6467584 328 560 335.6111584 560 345 C 560 354.3888416 511.6467584 362 452 362 C 392.3532416 362 344 354.3888416 344 345 Z" stroke-miterlimit="10"/></g><g transform="translate(2,2) scale(1,1)"><g><path fill="none" stroke="none"/><text fill="#000000" stroke="none" font-family="Arial" font-size="13px" font-style="normal" font-weight="bold" text-decoration="none" x="407" y="352">get sensor data</text></g></g><g transform="translate(2,2) scale(1,1)"><path fill="#C0C0C0" stroke="none" d="M 351 392 C 351 382.6111584 397.5623808 375 455 375 C 512.4376192 375 559 382.6111584 559 392 C 559 401.3888416 512.4376192 409 455 409 C 397.5623808 409 351 401.3888416 351 392 Z" opacity="0.2"/></g><g transform="translate(2,2) scale(1,1)"><path fill="#ffeaad" stroke="none" d="M 344 385 C 344 375.6111584 390.5623808 368 448 368 C 505.4376192 368 552 375.6111584 552 385 C 552 394.3888416 505.4376192 402 448 402 C 390.5623808 402 344 394.3888416 344 385 Z"/></g><g transform="translate(2,2) scale(1,1)"><path fill="none" stroke="#ffaa56" d="M 344 385 C 344 375.6111584 390.5623808 368 448 368 C 505.4376192 368 552 375.6111584 552 385 C 552 394.3888416 505.4376192 402 448 402 C 390.5623808 402 344 394.3888416 344 385 Z" stroke-miterlimit="10"/></g><g transform="translate(2,2) scale(1,1)"><g><path fill="none" stroke="none"/><text fill="#000000" stroke="none" font-family="Arial" font-size="13px" font-style="normal" font-weight="bold" text-decoration="none" x="399.5" y="392">filter sensor data</text></g></g><g transform="translate(2,2) scale(1,1)"><path fill="none" stroke="#000000" d="M 121 437 L 402 527" stroke-miterlimit="10"/></g><g transform="translate(2,2) scale(1,1)"><path fill="none" stroke="#000000" d="M 121 443 L 408 567" stroke-miterlimit="10"/></g><g transform="translate(2,2) scale(1,1)"><path fill="none" stroke="#000000" d="M 121 448 L 415 607" stroke-miterlimit="10"/></g><g transform="translate(2,2) scale(1,1)"><path fill="none" stroke="#000000" d="M 121 414 L 365 363" stroke-miterlimit="10"/></g><g transform="translate(2,2) scale(1,1)"><path fill="none" stroke="#000000" d="M 121 418 L 343 396" stroke-miterlimit="10"/></g><g transform="translate(2,2) scale(1,1)"><path fill="none" stroke="#000000" d="M 121 423 L 263 424" stroke-miterlimit="10"/></g><g transform="translate(2,2) scale(1,1)"><path fill="#ffffff" stroke="none" d="M 819.4508542258523 377.68 C 819.4508542258523 372.886167936 823.3366965507977 369 828.130126953125 369 C 832.9235573554523 369 836.8093996803977 372.886167936 836.8093996803977 377.68 C 836.8093996803977 382.473832064 832.9235573554523 386.36 828.130126953125 386.36 C 823.3366965507977 386.36 819.4508542258523 382.473832064 819.4508542258523 377.68 Z"/></g><g transform="translate(2,2) scale(1,1)"><path fill="none" stroke="#000000" d="M 819.4508542258523 377.68 C 819.4508542258523 372.886167936 823.3366965507977 369 828.130126953125 369 C 832.9235573554523 369 836.8093996803977 372.886167936 836.8093996803977 377.68 C 836.8093996803977 382.473832064 832.9235573554523 386.36 828.130126953125 386.36 C 823.3366965507977 386.36 819.4508542258523 382.473832064 819.4508542258523 377.68 Z" stroke-miterlimit="10"/></g><g transform="translate(2,2) scale(1,1)"><path fill="none" stroke="#000000" d="M 828.130126953125 386.36 L 828.130126953125 403.64" stroke-miterlimit="10"/></g><g transform="translate(2,2) scale(1,1)"><path fill="none" stroke="#000000" d="M 818.9403087713068 392.84 L 837.3199451349432 392.84" stroke-miterlimit="10"/></g><g transform="translate(2,2) scale(1,1)"><path fill="none" stroke="#000000" d="M 828.130126953125 403.64 L 815.3664905894886 421" stroke-miterlimit="10"/></g><g transform="translate(2,2) scale(1,1)"><path fill="none" stroke="#000000" d="M 828.130126953125 403.64 L 840.8937633167614 421" stroke-miterlimit="10"/></g><g transform="translate(2,2) scale(1,1)"><g><path fill="none" stroke="none"/><text fill="#000000" stroke="none" font-family="Arial" font-size="13px" font-style="normal" font-weight="bold" text-decoration="none" x="794.130126953125" y="441.5">Mobile First</text></g></g><g transform="translate(2,2) scale(1,1)"><path fill="none" stroke="#000000" d="M 507 527 L 783 424" stroke-miterlimit="10"/></g><g transform="translate(2,2) scale(1,1)"><path fill="none" stroke="#000000" d="M 561 363 L 783 400" stroke-miterlimit="10"/></g><g transform="translate(2,2) scale(1,1)"><path fill="none" stroke="#000000" d="M 553 391 L 783 404" stroke-miterlimit="10"/></g><g transform="translate(2,2) scale(1,1)"><path fill="none" stroke="#000000" d="M 121 405 L 430 283" stroke-miterlimit="10"/></g><g transform="translate(2,2) scale(1,1)"><g><path fill="none" stroke="none"/><text fill="#000000" stroke="none" font-family="Arial" font-size="22px" font-style="normal" font-weight="normal" text-decoration="none" x="29" y="43">Overview Sample UseCases</text></g></g><g transform="translate(2,2) scale(1,1)"><path fill="none" stroke="#000000" d="M 121 428 L 297 447" stroke-miterlimit="10"/></g><g transform="translate(2,2) scale(1,1)"><path fill="none" stroke="#000000" d="M 121 433 L 377 487" stroke-miterlimit="10"/></g><g transform="translate(2,2) scale(1,1)"><path fill="none" stroke="#000000" d="M 529 487 L 783 419" stroke-miterlimit="10"/></g><g transform="translate(2,2) scale(1,1)"><path fill="none" stroke="#000000" d="M 576 447 L 783 414" stroke-miterlimit="10"/></g><g transform="translate(2,2) scale(1,1)"><path fill="#C0C0C0" stroke="none" d="M 255 472 C 255 462.6111584 350.81105279999997 455 469 455 C 587.1889472 455 683 462.6111584 683 472 C 683 481.3888416 587.1889472 489 469 489 C 350.81105279999997 489 255 481.3888416 255 472 Z" opacity="0.2"/></g><g transform="translate(2,2) scale(1,1)"><path fill="#ffeaad" stroke="none" d="M 248 465 C 248 455.6111584 343.81105279999997 448 462 448 C 580.1889472 448 676 455.6111584 676 465 C 676 474.3888416 580.1889472 482 462 482 C 343.81105279999997 482 248 474.3888416 248 465 Z"/></g><g transform="translate(2,2) scale(1,1)"><path fill="none" stroke="#ffaa56" d="M 248 465 C 248 455.6111584 343.81105279999997 448 462 448 C 580.1889472 448 676 455.6111584 676 465 C 676 474.3888416 580.1889472 482 462 482 C 343.81105279999997 482 248 474.3888416 248 465 Z" stroke-miterlimit="10"/></g><g transform="translate(2,2) scale(1,1)"><g><path fill="none" stroke="none"/><text fill="#000000" stroke="none" font-family="Arial" font-size="13px" font-style="normal" font-weight="bold" text-decoration="none" x="338.5" y="472">report a problem with picture and comment</text></g></g><g transform="translate(2,2) scale(1,1)"><rect fill="#C0C0C0" stroke="none" x="903" y="391" width="53.6767578125" height="15" opacity="0.2"/></g><g transform="translate(2,2) scale(1,1)"><rect fill="#C0C0C0" stroke="none" x="903" y="405" width="134.19189453125" height="40" opacity="0.2"/></g><g transform="translate(2,2) scale(1,1)"><rect fill="#ffdf82" stroke="none" x="896" y="399" width="134.19189453125" height="39"/></g><g transform="translate(2,2) scale(1,1)"><path fill="none" stroke="#000000" d="M 896 399 L 1030.19189453125 399 L 1030.19189453125 438 L 896 438 L 896 399 Z Z" stroke-miterlimit="10"/></g><g transform="translate(2,2) scale(1,1)"><rect fill="#ffdf82" stroke="none" x="896" y="384" width="53.6767578125" height="15"/></g><g transform="translate(2,2) scale(1,1)"><path fill="none" stroke="#000000" d="M 896 384 L 949.6767578125 384 L 949.6767578125 399 L 896 399 L 896 384 Z Z" stroke-miterlimit="10"/></g><g transform="translate(2,2) scale(1,1)"><rect fill="#ffdf82" stroke="none" x="896" y="398" width="134.19189453125" height="40"/></g><g transform="translate(2,2) scale(1,1)"><path fill="none" stroke="#000000" d="M 896 398 L 1030.19189453125 398 L 1030.19189453125 438 L 896 438 L 896 398 Z Z" stroke-miterlimit="10"/></g><g transform="translate(2,2) scale(1,1)"><g><path fill="none" stroke="none"/><text fill="#000000" stroke="none" font-family="Arial" font-size="13px" font-style="normal" font-weight="bold" text-decoration="none" x="910.095947265625" y="418.5">Mobile Application</text></g></g><g transform="translate(2,2) scale(1,1)"><g><path fill="none" stroke="none"/><text fill="#000000" stroke="none" font-family="Arial" font-size="13px" font-style="normal" font-weight="normal" text-decoration="none" x="921.595947265625" y="433.5">(from System)</text></g></g><g transform="translate(2,2) scale(1,1)"><rect fill="#C0C0C0" stroke="none" x="903" y="215" width="56.995312499999955" height="15" opacity="0.2"/></g><g transform="translate(2,2) scale(1,1)"><rect fill="#C0C0C0" stroke="none" x="903" y="229" width="142.48828125" height="40" opacity="0.2"/></g><g transform="translate(2,2) scale(1,1)"><rect fill="#a3e0ff" stroke="none" x="896" y="223" width="142.48828125" height="39"/></g><g transform="translate(2,2) scale(1,1)"><path fill="none" stroke="#000000" d="M 896 223 L 1038.48828125 223 L 1038.48828125 262 L 896 262 L 896 223 Z Z" stroke-miterlimit="10"/></g><g transform="translate(2,2) scale(1,1)"><rect fill="#a3e0ff" stroke="none" x="896" y="208" width="56.995312499999955" height="15"/></g><g transform="translate(2,2) scale(1,1)"><path fill="none" stroke="#000000" d="M 896 208 L 952.9953125 208 L 952.9953125 223 L 896 223 L 896 208 Z Z" stroke-miterlimit="10"/></g><g transform="translate(2,2) scale(1,1)"><rect fill="#a3e0ff" stroke="none" x="896" y="222" width="142.48828125" height="40"/></g><g transform="translate(2,2) scale(1,1)"><path fill="none" stroke="#000000" d="M 896 222 L 1038.48828125 222 L 1038.48828125 262 L 896 262 L 896 222 Z Z" stroke-miterlimit="10"/></g><g transform="translate(2,2) scale(1,1)"><g><path fill="none" stroke="none"/><text fill="#000000" stroke="none" font-family="Arial" font-size="13px" font-style="normal" font-weight="bold" text-decoration="none" x="909.744140625" y="242.5">Bluemix Application</text></g></g><g transform="translate(2,2) scale(1,1)"><g><path fill="none" stroke="none"/><text fill="#000000" stroke="none" font-family="Arial" font-size="13px" font-style="normal" font-weight="normal" text-decoration="none" x="925.744140625" y="257.5">(from System)</text></g></g><g transform="translate(2,2) scale(1,1)"><path fill="none" stroke="#000000" d="M 964 383 L 966 263" stroke-miterlimit="10" stroke-dasharray="3"/></g><g transform="translate(2,2) scale(1,1)"><path fill="none" stroke="#000000" d="M 970.0395788280638 273.2314125560383 L 966 263 L 961.6217123829697 273.0911147819534" stroke-miterlimit="10"/></g><g transform="translate(2,2) scale(1,1)"><path fill="#C0C0C0" stroke="none" d="M 271 432 C 271 422.6111584 364.5724768 415 480 415 C 595.4275232 415 689 422.6111584 689 432 C 689 441.3888416 595.4275232 449 480 449 C 364.5724768 449 271 441.3888416 271 432 Z" opacity="0.2"/></g><g transform="translate(2,2) scale(1,1)"><path fill="#ffeaad" stroke="none" d="M 264 425 C 264 415.6111584 357.5724768 408 473 408 C 588.4275232 408 682 415.6111584 682 425 C 682 434.3888416 588.4275232 442 473 442 C 357.5724768 442 264 434.3888416 264 425 Z"/></g><g transform="translate(2,2) scale(1,1)"><path fill="none" stroke="#ffaa56" d="M 264 425 C 264 415.6111584 357.5724768 408 473 408 C 588.4275232 408 682 415.6111584 682 425 C 682 434.3888416 588.4275232 442 473 442 C 357.5724768 442 264 434.3888416 264 425 Z" stroke-miterlimit="10"/></g><g transform="translate(2,2) scale(1,1)"><g><path fill="none" stroke="none"/><text fill="#000000" stroke="none" font-family="Arial" font-size="13px" font-style="normal" font-weight="bold" text-decoration="none" x="352" y="432">provide a chart for the filtered sensor data</text></g></g><g transform="translate(2,2) scale(1,1)"><path fill="none" stroke="#000000" d="M 487 567 L 783 428" stroke-miterlimit="10"/></g><g transform="translate(2,2) scale(1,1)"><path fill="#C0C0C0" stroke="none" d="M 351 552 C 351 542.6111584 402.487248 535 466 535 C 529.512752 535 581 542.6111584 581 552 C 581 561.3888416 529.512752 569 466 569 C 402.487248 569 351 561.3888416 351 552 Z" opacity="0.2"/></g><g transform="translate(2,2) scale(1,1)"><path fill="#ffeaad" stroke="none" d="M 344 545 C 344 535.6111584 395.487248 528 459 528 C 522.512752 528 574 535.6111584 574 545 C 574 554.3888416 522.512752 562 459 562 C 395.487248 562 344 554.3888416 344 545 Z"/></g><g transform="translate(2,2) scale(1,1)"><path fill="none" stroke="#ffaa56" d="M 344 545 C 344 535.6111584 395.487248 528 459 528 C 522.512752 528 574 535.6111584 574 545 C 574 554.3888416 522.512752 562 459 562 C 395.487248 562 344 554.3888416 344 545 Z" stroke-miterlimit="10"/></g><g transform="translate(2,2) scale(1,1)"><g><path fill="none" stroke="none"/><text fill="#000000" stroke="none" font-family="Arial" font-size="13px" font-style="normal" font-weight="bold" text-decoration="none" x="394.5" y="552">provide Authentication</text></g></g><g transform="translate(2,2) scale(1,1)"><path fill="#C0C0C0" stroke="none" d="M 255 512 C 255 502.6111584 351.0349104 495 469.5 495 C 587.9650896 495 684 502.6111584 684 512 C 684 521.3888416 587.9650896 529 469.5 529 C 351.0349104 529 255 521.3888416 255 512 Z" opacity="0.2"/></g><g transform="translate(2,2) scale(1,1)"><path fill="#ffeaad" stroke="none" d="M 248 505 C 248 495.6111584 344.0349104 488 462.5 488 C 580.9650896 488 677 495.6111584 677 505 C 677 514.3888416 580.9650896 522 462.5 522 C 344.0349104 522 248 514.3888416 248 505 Z"/></g><g transform="translate(2,2) scale(1,1)"><path fill="none" stroke="#ffaa56" d="M 248 505 C 248 495.6111584 344.0349104 488 462.5 488 C 580.9650896 488 677 495.6111584 677 505 C 677 514.3888416 580.9650896 522 462.5 522 C 344.0349104 522 248 514.3888416 248 505 Z" stroke-miterlimit="10"/></g><g transform="translate(2,2) scale(1,1)"><g><path fill="none" stroke="none"/><text fill="#000000" stroke="none" font-family="Arial" font-size="13px" font-style="normal" font-weight="bold" text-decoration="none" x="336.5" y="512">show and update geo location of the sensor</text></g></g><g transform="translate(2,2) scale(1,1)"><rect fill="#ffffff" stroke="none" x="48" y="648" width="231.21923828125" height="22"/></g><g transform="translate(2,2) scale(1,1)"><path fill="none" stroke="#000000" d="M 48 648 L 279.21923828125 648 L 279.21923828125 670 L 48 670 L 48 648 Z Z" stroke-miterlimit="10"/></g><g transform="translate(2,2) scale(1,1)"><path fill="none" stroke="#000000" d="M 81 648 L 81 670" stroke-miterlimit="10"/></g><g transform="translate(2,2) scale(1,1)"><g><path fill="none" stroke="none"/><text fill="#000000" stroke="none" font-family="Arial" font-size="13px" font-style="normal" font-weight="normal" text-decoration="none" x="85.5" y="665.5">Overview UseCase Realizations</text></g></g><g transform="translate(2,2) scale(1,1)"><g><path fill="none" stroke="none"/><text fill="#000000" stroke="none" font-family="Arial" font-size="13px" font-style="normal" font-weight="bold" text-decoration="none" x="54.5" y="665.5">link</text></g></g><g transform="translate(2,2) scale(1,1)"><path fill="#ffffff" stroke="none" d="M 820.2081784446023 17.68 C 820.2081784446023 12.886167936 824.0940207695477 9 828.887451171875 9 C 833.6808815742023 9 837.5667238991477 12.886167936 837.5667238991477 17.68 C 837.5667238991477 22.473832064 833.6808815742023 26.36 828.887451171875 26.36 C 824.0940207695477 26.36 820.2081784446023 22.473832064 820.2081784446023 17.68 Z"/></g><g transform="translate(2,2) scale(1,1)"><path fill="none" stroke="#000000" d="M 820.2081784446023 17.68 C 820.2081784446023 12.886167936 824.0940207695477 9 828.887451171875 9 C 833.6808815742023 9 837.5667238991477 12.886167936 837.5667238991477 17.68 C 837.5667238991477 22.473832064 833.6808815742023 26.36 828.887451171875 26.36 C 824.0940207695477 26.36 820.2081784446023 22.473832064 820.2081784446023 17.68 Z" stroke-miterlimit="10"/></g><g transform="translate(2,2) scale(1,1)"><path fill="none" stroke="#000000" d="M 828.887451171875 26.36 L 828.887451171875 43.64" stroke-miterlimit="10"/></g><g transform="translate(2,2) scale(1,1)"><path fill="none" stroke="#000000" d="M 819.6976329900568 32.84 L 838.0772693536932 32.84" stroke-miterlimit="10"/></g><g transform="translate(2,2) scale(1,1)"><path fill="none" stroke="#000000" d="M 828.887451171875 43.64 L 816.1238148082386 61" stroke-miterlimit="10"/></g><g transform="translate(2,2) scale(1,1)"><path fill="none" stroke="#000000" d="M 828.887451171875 43.64 L 841.6510875355114 61" stroke-miterlimit="10"/></g><g transform="translate(2,2) scale(1,1)"><g><path fill="none" stroke="none"/><text fill="#000000" stroke="none" font-family="Arial" font-size="13px" font-style="normal" font-weight="bold" text-decoration="none" x="800.887451171875" y="81.5">IoT Cloud</text></g></g><g transform="translate(2,2) scale(1,1)"><path fill="#C0C0C0" stroke="none" d="M 223 80 C 223 70.6111584 347.6886832 63 501.5 63 C 655.3113168 63 780 70.6111584 780 80 C 780 89.3888416 655.3113168 97 501.5 97 C 347.6886832 97 223 89.3888416 223 80 Z" opacity="0.2"/></g><g transform="translate(2,2) scale(1,1)"><path fill="#a3e0ff" stroke="none" d="M 216 73 C 216 63.6111584 340.6886832 56 494.5 56 C 648.3113168 56 773 63.6111584 773 73 C 773 82.3888416 648.3113168 90 494.5 90 C 340.6886832 90 216 82.3888416 216 73 Z"/></g><g transform="translate(2,2) scale(1,1)"><path fill="none" stroke="#91ffec" d="M 216 73 C 216 63.6111584 340.6886832 56 494.5 56 C 648.3113168 56 773 63.6111584 773 73 C 773 82.3888416 648.3113168 90 494.5 90 C 340.6886832 90 216 82.3888416 216 73 Z" stroke-miterlimit="10"/></g><g transform="translate(2,2) scale(1,1)"><g><path fill="none" stroke="none"/><text fill="#000000" stroke="none" font-family="Arial" font-size="13px" font-style="normal" font-weight="bold" text-decoration="none" x="393.5" y="80">get sensor data from the IoT Cloud</text></g></g><g transform="translate(2,2) scale(1,1)"><path fill="none" stroke="#000000" d="M 725 55 L 791 50" stroke-miterlimit="10"/></g><g transform="translate(2,2) scale(1,1)"><path fill="#ffffff" stroke="none" d="M 828.3207272727273 209.68 C 828.3207272727273 204.886167936 832.2065695976727 201 837 201 C 841.7934304023273 201 845.6792727272727 204.886167936 845.6792727272727 209.68 C 845.6792727272727 214.47383206400002 841.7934304023273 218.36 837 218.36 C 832.2065695976727 218.36 828.3207272727273 214.47383206400002 828.3207272727273 209.68 Z"/></g><g transform="translate(2,2) scale(1,1)"><path fill="none" stroke="#000000" d="M 828.3207272727273 209.68 C 828.3207272727273 204.886167936 832.2065695976727 201 837 201 C 841.7934304023273 201 845.6792727272727 204.886167936 845.6792727272727 209.68 C 845.6792727272727 214.47383206400002 841.7934304023273 218.36 837 218.36 C 832.2065695976727 218.36 828.3207272727273 214.47383206400002 828.3207272727273 209.68 Z" stroke-miterlimit="10"/></g><g transform="translate(2,2) scale(1,1)"><path fill="none" stroke="#000000" d="M 837 218.36 L 837 235.64" stroke-miterlimit="10"/></g><g transform="translate(2,2) scale(1,1)"><path fill="none" stroke="#000000" d="M 827.8101818181818 224.84 L 846.1898181818182 224.84" stroke-miterlimit="10"/></g><g transform="translate(2,2) scale(1,1)"><path fill="none" stroke="#000000" d="M 837 235.64 L 824.2363636363636 253" stroke-miterlimit="10"/></g><g transform="translate(2,2) scale(1,1)"><path fill="none" stroke="#000000" d="M 837 235.64 L 849.7636363636364 253" stroke-miterlimit="10"/></g><g transform="translate(2,2) scale(1,1)"><g><path fill="none" stroke="none"/><text fill="#000000" stroke="none" font-family="Arial" font-size="13px" font-style="normal" font-weight="bold" text-decoration="none" x="774.5" y="273.5">Watson Text2Speech</text></g></g><g transform="translate(2,2) scale(1,1)"><path fill="none" stroke="#000000" d="M 479 607 L 783 433" stroke-miterlimit="10"/></g><g transform="translate(2,2) scale(1,1)"><path fill="#ffffff" stroke="none" d="M 821.8207272727273 89.68 C 821.8207272727273 84.886167936 825.7065695976727 81 830.5 81 C 835.2934304023273 81 839.1792727272727 84.886167936 839.1792727272727 89.68 C 839.1792727272727 94.473832064 835.2934304023273 98.36 830.5 98.36 C 825.7065695976727 98.36 821.8207272727273 94.473832064 821.8207272727273 89.68 Z"/></g><g transform="translate(2,2) scale(1,1)"><path fill="none" stroke="#000000" d="M 821.8207272727273 89.68 C 821.8207272727273 84.886167936 825.7065695976727 81 830.5 81 C 835.2934304023273 81 839.1792727272727 84.886167936 839.1792727272727 89.68 C 839.1792727272727 94.473832064 835.2934304023273 98.36 830.5 98.36 C 825.7065695976727 98.36 821.8207272727273 94.473832064 821.8207272727273 89.68 Z" stroke-miterlimit="10"/></g><g transform="translate(2,2) scale(1,1)"><path fill="none" stroke="#000000" d="M 830.5 98.36 L 830.5 115.64" stroke-miterlimit="10"/></g><g transform="translate(2,2) scale(1,1)"><path fill="none" stroke="#000000" d="M 821.3101818181818 104.84 L 839.6898181818182 104.84" stroke-miterlimit="10"/></g><g transform="translate(2,2) scale(1,1)"><path fill="none" stroke="#000000" d="M 830.5 115.64 L 817.7363636363636 133" stroke-miterlimit="10"/></g><g transform="translate(2,2) scale(1,1)"><path fill="none" stroke="#000000" d="M 830.5 115.64 L 843.2636363636364 133" stroke-miterlimit="10"/></g><g transform="translate(2,2) scale(1,1)"><g><path fill="none" stroke="none"/><text fill="#000000" stroke="none" font-family="Arial" font-size="13px" font-style="normal" font-weight="bold" text-decoration="none" x="775.5" y="153.5">Cloudant Database</text></g></g><g transform="translate(2,2) scale(1,1)"><path fill="#C0C0C0" stroke="none" d="M 295 168 C 295 158.6111584 386.781616 151 500 151 C 613.218384 151 705 158.6111584 705 168 C 705 177.3888416 613.218384 185 500 185 C 386.781616 185 295 177.3888416 295 168 Z" opacity="0.2"/></g><g transform="translate(2,2) scale(1,1)"><path fill="#a3e0ff" stroke="none" d="M 288 161 C 288 151.6111584 379.781616 144 493 144 C 606.218384 144 698 151.6111584 698 161 C 698 170.3888416 606.218384 178 493 178 C 379.781616 178 288 170.3888416 288 161 Z"/></g><g transform="translate(2,2) scale(1,1)"><path fill="none" stroke="#91ffec" d="M 288 161 C 288 151.6111584 379.781616 144 493 144 C 606.218384 144 698 151.6111584 698 161 C 698 170.3888416 606.218384 178 493 178 C 379.781616 178 288 170.3888416 288 161 Z" stroke-miterlimit="10"/></g><g transform="translate(2,2) scale(1,1)"><g><path fill="none" stroke="none"/><text fill="#000000" stroke="none" font-family="Arial" font-size="13px" font-style="normal" font-weight="bold" text-decoration="none" x="362.5" y="168">provide a overview to all existing sensor data</text></g></g><g transform="translate(2,2) scale(1,1)"><path fill="none" stroke="#000000" d="M 156 251 L 426 179" stroke-miterlimit="10"/></g><g transform="translate(2,2) scale(1,1)"><path fill="none" stroke="#000000" d="M 637 143 L 767 127" stroke-miterlimit="10"/></g><g transform="translate(2,2) scale(1,1)"><path fill="none" stroke="#000000" d="M 625 91 L 767 110" stroke-miterlimit="10"/></g><g transform="translate(2,2) scale(1,1)"><path fill="#C0C0C0" stroke="none" d="M 359 592 C 359 582.6111584 402.652232 575 456.5 575 C 510.347768 575 554 582.6111584 554 592 C 554 601.3888416 510.347768 609 456.5 609 C 402.652232 609 359 601.3888416 359 592 Z" opacity="0.2"/></g><g transform="translate(2,2) scale(1,1)"><path fill="#ffeaad" stroke="none" d="M 352 585 C 352 575.6111584 395.652232 568 449.5 568 C 503.347768 568 547 575.6111584 547 585 C 547 594.3888416 503.347768 602 449.5 602 C 395.652232 602 352 594.3888416 352 585 Z"/></g><g transform="translate(2,2) scale(1,1)"><path fill="none" stroke="#ffaa56" d="M 352 585 C 352 575.6111584 395.652232 568 449.5 568 C 503.347768 568 547 575.6111584 547 585 C 547 594.3888416 503.347768 602 449.5 602 C 395.652232 602 352 594.3888416 352 585 Z" stroke-miterlimit="10"/></g><g transform="translate(2,2) scale(1,1)"><g><path fill="none" stroke="none"/><text fill="#000000" stroke="none" font-family="Arial" font-size="13px" font-style="normal" font-weight="bold" text-decoration="none" x="406" y="592">get  driver data</text></g></g></g></svg>