<svg version="1.1" xmlns="http://www.w3.org/2000/svg" xmlns:xlink="http://www.w3.org/1999/xlink" width="717" height="870"><defs/><g><g transform="translate(-166,-70) scale(1,1)"><rect fill="#C0C0C0" stroke="none" x="209" y="231" width="126" height="44" opacity="0.2"/></g><g transform="translate(-166,-70) scale(1,1)"><rect fill="#ffffff" stroke="none" x="202" y="224" width="126" height="44"/></g><g transform="translate(-166,-70) scale(1,1)"><path fill="none" stroke="#000000" d="M 202 224 L 328 224 L 328 268 L 202 268 L 202 224 Z Z" stroke-miterlimit="10"/></g><g transform="translate(-166,-70) scale(1,1)"><rect fill="#ffffff" stroke="none" x="192" y="231" width="20" height="10"/></g><g transform="translate(-166,-70) scale(1,1)"><path fill="none" stroke="#000000" d="M 192 231 L 212 231 L 212 241 L 192 241 L 192 231 Z Z" stroke-miterlimit="10"/></g><g transform="translate(-166,-70) scale(1,1)"><rect fill="#ffffff" stroke="none" x="192" y="251" width="20" height="10"/></g><g transform="translate(-166,-70) scale(1,1)"><path fill="none" stroke="#000000" d="M 192 251 L 212 251 L 212 261 L 192 261 L 192 251 Z Z" stroke-miterlimit="10"/></g><g transform="translate(-166,-70) scale(1,1)"><g><path fill="none" stroke="none"/><text fill="#000000" stroke="none" font-family="Arial" font-size="13px" font-style="normal" font-weight="bold" text-decoration="none" x="252.5" y="243.5">app.js</text></g></g><g transform="translate(-166,-70) scale(1,1)"><rect fill="#C0C0C0" stroke="none" x="425" y="231" width="107.50244140625" height="44" opacity="0.2"/></g><g transform="translate(-166,-70) scale(1,1)"><rect fill="#ffffff" stroke="none" x="418" y="224" width="107.50244140625" height="44"/></g><g transform="translate(-166,-70) scale(1,1)"><path fill="none" stroke="#000000" d="M 418 224 L 525.50244140625 224 L 525.50244140625 268 L 418 268 L 418 224 Z Z" stroke-miterlimit="10"/></g><g transform="translate(-166,-70) scale(1,1)"><rect fill="#ffffff" stroke="none" x="408" y="231" width="20" height="10"/></g><g transform="translate(-166,-70) scale(1,1)"><path fill="none" stroke="#000000" d="M 408 231 L 428 231 L 428 241 L 408 241 L 408 231 Z Z" stroke-miterlimit="10"/></g><g transform="translate(-166,-70) scale(1,1)"><rect fill="#ffffff" stroke="none" x="408" y="251" width="20" height="10"/></g><g transform="translate(-166,-70) scale(1,1)"><path fill="none" stroke="#000000" d="M 408 251 L 428 251 L 428 261 L 408 261 L 408 251 Z Z" stroke-miterlimit="10"/></g><g transform="translate(-166,-70) scale(1,1)"><g><path fill="none" stroke="none"/><text fill="#000000" stroke="none" font-family="Arial" font-size="13px" font-style="normal" font-weight="bold" text-decoration="none" x="439.751220703125" y="243.5">controllers.js</text></g></g><g transform="translate(-166,-70) scale(1,1)"><rect fill="#C0C0C0" stroke="none" x="425" y="367" width="112.09521484375" height="44" opacity="0.2"/></g><g transform="translate(-166,-70) scale(1,1)"><rect fill="#ffffff" stroke="none" x="418" y="360" width="112.09521484375" height="44"/></g><g transform="translate(-166,-70) scale(1,1)"><path fill="none" stroke="#000000" d="M 418 360 L 530.09521484375 360 L 530.09521484375 404 L 418 404 L 418 360 Z Z" stroke-miterlimit="10"/></g><g transform="translate(-166,-70) scale(1,1)"><rect fill="#ffffff" stroke="none" x="408" y="367" width="20" height="10"/></g><g transform="translate(-166,-70) scale(1,1)"><path fill="none" stroke="#000000" d="M 408 367 L 428 367 L 428 377 L 408 377 L 408 367 Z Z" stroke-miterlimit="10"/></g><g transform="translate(-166,-70) scale(1,1)"><rect fill="#ffffff" stroke="none" x="408" y="387" width="20" height="10"/></g><g transform="translate(-166,-70) scale(1,1)"><path fill="none" stroke="#000000" d="M 408 387 L 428 387 L 428 397 L 408 397 L 408 387 Z Z" stroke-miterlimit="10"/></g><g transform="translate(-166,-70) scale(1,1)"><g><path fill="none" stroke="none"/><text fill="#000000" stroke="none" font-family="Arial" font-size="13px" font-style="normal" font-weight="bold" text-decoration="none" x="440.047607421875" y="379.5">ctrl_drivers.js</text></g></g><g transform="translate(-166,-70) scale(1,1)"><rect fill="#C0C0C0" stroke="none" x="425" y="319" width="175.25146484375" height="44" opacity="0.2"/></g><g transform="translate(-166,-70) scale(1,1)"><rect fill="#ffffff" stroke="none" x="418" y="312" width="175.25146484375" height="44"/></g><g transform="translate(-166,-70) scale(1,1)"><path fill="none" stroke="#000000" d="M 418 312 L 593.25146484375 312 L 593.25146484375 356 L 418 356 L 418 312 Z Z" stroke-miterlimit="10"/></g><g transform="translate(-166,-70) scale(1,1)"><rect fill="#ffffff" stroke="none" x="408" y="319" width="20" height="10"/></g><g transform="translate(-166,-70) scale(1,1)"><path fill="none" stroke="#000000" d="M 408 319 L 428 319 L 428 329 L 408 329 L 408 319 Z Z" stroke-miterlimit="10"/></g><g transform="translate(-166,-70) scale(1,1)"><rect fill="#ffffff" stroke="none" x="408" y="339" width="20" height="10"/></g><g transform="translate(-166,-70) scale(1,1)"><path fill="none" stroke="#000000" d="M 408 339 L 428 339 L 428 349 L 408 349 L 408 339 Z Z" stroke-miterlimit="10"/></g><g transform="translate(-166,-70) scale(1,1)"><g><path fill="none" stroke="none"/><text fill="#000000" stroke="none" font-family="Arial" font-size="13px" font-style="normal" font-weight="bold" text-decoration="none" x="444.125732421875" y="331.5">ctrl_cloudant_details.js</text></g></g><g transform="translate(-166,-70) scale(1,1)"><rect fill="#C0C0C0" stroke="none" x="753" y="231" width="101.15478515625" height="44" opacity="0.2"/></g><g transform="translate(-166,-70) scale(1,1)"><rect fill="#ffffff" stroke="none" x="746" y="224" width="101.15478515625" height="44"/></g><g transform="translate(-166,-70) scale(1,1)"><path fill="none" stroke="#000000" d="M 746 224 L 847.15478515625 224 L 847.15478515625 268 L 746 268 L 746 224 Z Z" stroke-miterlimit="10"/></g><g transform="translate(-166,-70) scale(1,1)"><rect fill="#ffffff" stroke="none" x="736" y="231" width="20" height="10"/></g><g transform="translate(-166,-70) scale(1,1)"><path fill="none" stroke="#000000" d="M 736 231 L 756 231 L 756 241 L 736 241 L 736 231 Z Z" stroke-miterlimit="10"/></g><g transform="translate(-166,-70) scale(1,1)"><rect fill="#ffffff" stroke="none" x="736" y="251" width="20" height="10"/></g><g transform="translate(-166,-70) scale(1,1)"><path fill="none" stroke="#000000" d="M 736 251 L 756 251 L 756 261 L 736 261 L 736 251 Z Z" stroke-miterlimit="10"/></g><g transform="translate(-166,-70) scale(1,1)"><g><path fill="none" stroke="none"/><text fill="#000000" stroke="none" font-family="Arial" font-size="13px" font-style="normal" font-weight="bold" text-decoration="none" x="766.077392578125" y="243.5">sharedata.js</text></g></g><g transform="translate(-166,-70) scale(1,1)"><path fill="none" stroke="#000000" d="M 523 359 L 737 269" stroke-miterlimit="10" stroke-dasharray="3"/></g><g transform="translate(-166,-70) scale(1,1)"><path fill="none" stroke="#000000" d="M 729.2639835934048 276.82010550804074 L 737 269 L 726.0001607051962 269.059459973856" stroke-miterlimit="10"/></g><g transform="translate(-166,-70) scale(1,1)"><path fill="none" stroke="#000000" d="M 576 311 L 735 263" stroke-miterlimit="10" stroke-dasharray="3"/></g><g transform="translate(-166,-70) scale(1,1)"><path fill="none" stroke="#000000" d="M 726.4875597044041 269.9669476970848 L 735 263 L 724.0544197817578 261.90717170331914" stroke-miterlimit="10"/></g><g transform="translate(-166,-70) scale(1,1)"><g><path fill="none" stroke="none"/><text fill="#000000" stroke="none" font-family="Arial" font-size="24px" font-style="normal" font-weight="normal" text-decoration="none" x="181" y="109">Basics Overview Controllers</text></g></g><g transform="translate(-166,-70) scale(1,1)"><path fill="#ffffff" stroke="none" d="M 720 344 L 845 344 L 855 354 L 855 415 L 720 415 L 720 344"/></g><g transform="translate(-166,-70) scale(1,1)"><path fill="none" stroke="#000000" d="M 720 344 L 845 344 L 855 354 L 855 415 L 720 415 L 720 344 L 720 344" stroke-miterlimit="10"/></g><g transform="translate(-166,-70) scale(1,1)"><path fill="none" stroke="#000000" d="M 845 344 L 845 354 L 855 354 L 845 344" stroke-miterlimit="10"/></g><g transform="translate(-166,-70) scale(1,1)"><g><path fill="none" stroke="none"/><text fill="#d16800" stroke="none" font-family="Arial" font-size="13px" font-style="normal" font-weight="normal" text-decoration="none" x="725" y="362">Contains Factories</text><text fill="#d16800" stroke="none" font-family="Arial" font-size="13px" font-style="normal" font-weight="normal" text-decoration="none" x="725" y="375">and services to</text><text fill="#d16800" stroke="none" font-family="Arial" font-size="13px" font-style="normal" font-weight="normal" text-decoration="none" x="725" y="388">exchange data or</text><text fill="#d16800" stroke="none" font-family="Arial" font-size="13px" font-style="normal" font-weight="normal" text-decoration="none" x="725" y="401">reuse operations</text></g></g><g transform="translate(-166,-70) scale(1,1)"><path fill="none" stroke="#000000" d="M 789 343 L 790 269" stroke-miterlimit="10" stroke-dasharray="3"/></g><g transform="translate(-166,-70) scale(1,1)"><path fill="none" stroke="#000000" d="M 527 246 L 735 246" stroke-miterlimit="10" stroke-dasharray="3"/></g><g transform="translate(-166,-70) scale(1,1)"><path fill="none" stroke="#000000" d="M 724.8373251423759 250.209517756016 L 735 246 L 724.8373251423758 241.790482243984" stroke-miterlimit="10"/></g><g transform="translate(-166,-70) scale(1,1)"><rect fill="#C0C0C0" stroke="none" x="209" y="151" width="98" height="44" opacity="0.2"/></g><g transform="translate(-166,-70) scale(1,1)"><rect fill="#ffffff" stroke="none" x="202" y="144" width="98" height="44"/></g><g transform="translate(-166,-70) scale(1,1)"><path fill="none" stroke="#000000" d="M 202 144 L 300 144 L 300 188 L 202 188 L 202 144 Z Z" stroke-miterlimit="10"/></g><g transform="translate(-166,-70) scale(1,1)"><rect fill="#ffffff" stroke="none" x="192" y="151" width="20" height="10"/></g><g transform="translate(-166,-70) scale(1,1)"><path fill="none" stroke="#000000" d="M 192 151 L 212 151 L 212 161 L 192 161 L 192 151 Z Z" stroke-miterlimit="10"/></g><g transform="translate(-166,-70) scale(1,1)"><rect fill="#ffffff" stroke="none" x="192" y="171" width="20" height="10"/></g><g transform="translate(-166,-70) scale(1,1)"><path fill="none" stroke="#000000" d="M 192 171 L 212 171 L 212 181 L 192 181 L 192 171 Z Z" stroke-miterlimit="10"/></g><g transform="translate(-166,-70) scale(1,1)"><g><path fill="none" stroke="none"/><text fill="#000000" stroke="none" font-family="Arial" font-size="13px" font-style="normal" font-weight="bold" text-decoration="none" x="233.5" y="163.5">index.js</text></g></g><g transform="translate(-166,-70) scale(1,1)"><path fill="#ffffff" stroke="none" d="M 320 136 L 378 136 L 388 146 L 388 185 L 320 185 L 320 136"/></g><g transform="translate(-166,-70) scale(1,1)"><path fill="none" stroke="#000000" d="M 320 136 L 378 136 L 388 146 L 388 185 L 320 185 L 320 136 L 320 136" stroke-miterlimit="10"/></g><g transform="translate(-166,-70) scale(1,1)"><path fill="none" stroke="#000000" d="M 378 136 L 378 146 L 388 146 L 378 136" stroke-miterlimit="10"/></g><g transform="translate(-166,-70) scale(1,1)"><g><path fill="none" stroke="none"/><text fill="#d16800" stroke="none" font-family="Arial" font-size="13px" font-style="normal" font-weight="normal" text-decoration="none" x="325" y="154">For</text><text fill="#d16800" stroke="none" font-family="Arial" font-size="13px" font-style="normal" font-weight="normal" text-decoration="none" x="325" y="167">Mobile</text><text fill="#d16800" stroke="none" font-family="Arial" font-size="13px" font-style="normal" font-weight="normal" text-decoration="none" x="325" y="180">First</text></g></g><g transform="translate(-166,-70) scale(1,1)"><path fill="none" stroke="#000000" d="M 301 163 L 319 163" stroke-miterlimit="10" stroke-dasharray="3"/></g><g transform="translate(-166,-70) scale(1,1)"><path fill="none" stroke="#000000" d="M 312 268 L 312 326 M 312 326 A 8 8 0 0 0 320 334 L 408 334" stroke-miterlimit="10" stroke-dasharray="3"/></g><g transform="translate(-166,-70) scale(1,1)"><path fill="none" stroke="#000000" d="M 397.83732514237585 338.209517756016 L 408 334 L 397.83732514237585 329.790482243984" stroke-miterlimit="10"/></g><g transform="translate(-166,-70) scale(1,1)"><path fill="none" stroke="#000000" d="M 329 246 L 407 246" stroke-miterlimit="10" stroke-dasharray="3"/></g><g transform="translate(-166,-70) scale(1,1)"><path fill="none" stroke="#000000" d="M 396.83732514237585 250.209517756016 L 407 246 L 396.83732514237585 241.790482243984" stroke-miterlimit="10"/></g><g transform="translate(-166,-70) scale(1,1)"><path fill="none" stroke="#000000" d="M 304 268 L 304 376 M 304 376 A 8 8 0 0 0 312 384 L 408 384" stroke-miterlimit="10" stroke-dasharray="3"/></g><g transform="translate(-166,-70) scale(1,1)"><path fill="none" stroke="#000000" d="M 397.83732514237585 388.209517756016 L 408 384 L 397.83732514237585 379.790482243984" stroke-miterlimit="10"/></g><g transform="translate(-166,-70) scale(1,1)"><path fill="#C0C0C0" stroke="none" d="M 742.908056640625 695 L 770.348056640625 695 L 782.108056640625 706.76 L 782.108056640625 744 L 742.908056640625 744" opacity="0.2"/></g><g transform="translate(-166,-70) scale(1,1)"><path fill="#ffffff" stroke="none" d="M 735.908056640625 688 L 763.348056640625 688 L 775.108056640625 699.76 L 775.108056640625 737 L 735.908056640625 737"/></g><g transform="translate(-166,-70) scale(1,1)"><path fill="none" stroke="#000000" d="M 735.908056640625 688 L 763.348056640625 688 L 775.108056640625 699.76 L 775.108056640625 737 L 735.908056640625 737 L 735.908056640625 688" stroke-miterlimit="10"/></g><g transform="translate(-166,-70) scale(1,1)"><path fill="none" stroke="#000000" d="M 763.348056640625 688 L 763.348056640625 699.76 L 775.108056640625 699.76 L 763.348056640625 688" stroke-miterlimit="10"/></g><g transform="translate(-166,-70) scale(1,1)"><g><path fill="none" stroke="none"/><text fill="#000000" stroke="none" font-family="Arial" font-size="13px" font-style="normal" font-weight="bold" text-decoration="none" x="722.008056640625" y="756.5">ng_cordova</text></g></g><g transform="translate(-166,-70) scale(1,1)"><path fill="none" stroke="#000070" d="M 240 268 L 240 696 M 240 696 A 8 8 0 0 0 248 704 L 712 704" stroke-miterlimit="10" stroke-dasharray="3"/></g><g transform="translate(-166,-70) scale(1,1)"><path fill="none" stroke="#000070" d="M 701.8373251423759 708.209517756016 L 712 704 L 701.8373251423758 699.790482243984" stroke-miterlimit="10"/></g><g transform="translate(-166,-70) scale(1,1)"><path fill="none" stroke="#0000a0" d="M 463 224 L 463 160 M 463 160 A 8 8 0 0 1 471 152 L 864 152 M 864 152 A 8 8 0 0 1 872 160 L 872 685 M 872 685 A 8 8 0 0 1 864 693 L 799 693" stroke-miterlimit="10" stroke-dasharray="3"/></g><g transform="translate(-166,-70) scale(1,1)"><path fill="none" stroke="#0000a0" d="M 809.1626748576241 688.790482243984 L 799 693 L 809.1626748576241 697.209517756016" stroke-miterlimit="10"/></g><g transform="translate(-166,-70) scale(1,1)"><path fill="#C0C0C0" stroke="none" d="M 742.21787109375 863 L 769.65787109375 863 L 781.41787109375 874.76 L 781.41787109375 912 L 742.21787109375 912" opacity="0.2"/></g><g transform="translate(-166,-70) scale(1,1)"><path fill="#ffffff" stroke="none" d="M 735.21787109375 856 L 762.65787109375 856 L 774.41787109375 867.76 L 774.41787109375 905 L 735.21787109375 905"/></g><g transform="translate(-166,-70) scale(1,1)"><path fill="none" stroke="#000000" d="M 735.21787109375 856 L 762.65787109375 856 L 774.41787109375 867.76 L 774.41787109375 905 L 735.21787109375 905 L 735.21787109375 856" stroke-miterlimit="10"/></g><g transform="translate(-166,-70) scale(1,1)"><path fill="none" stroke="#000000" d="M 762.65787109375 856 L 762.65787109375 867.76 L 774.41787109375 867.76 L 762.65787109375 856" stroke-miterlimit="10"/></g><g transform="translate(-166,-70) scale(1,1)"><g><path fill="none" stroke="none"/><text fill="#000000" stroke="none" font-family="Arial" font-size="13px" font-style="normal" font-weight="bold" text-decoration="none" x="693.81787109375" y="924.5">uiGmapgoogle_maps</text></g></g><g transform="translate(-166,-70) scale(1,1)"><path fill="none" stroke="#000000" d="M 530 368 L 640 368 M 640 368 A 8 8 0 0 1 648 376 L 648 709 M 648 709 A 8 8 0 0 0 656 717 L 712 717" stroke-miterlimit="10" stroke-dasharray="3"/></g><g transform="translate(-166,-70) scale(1,1)"><path fill="none" stroke="#000000" d="M 701.8373251423759 721.209517756016 L 712 717 L 701.8373251423758 712.790482243984" stroke-miterlimit="10"/></g><g transform="translate(-166,-70) scale(1,1)"><rect fill="#C0C0C0" stroke="none" x="425" y="463" width="98" height="44" opacity="0.2"/></g><g transform="translate(-166,-70) scale(1,1)"><rect fill="#ffffff" stroke="none" x="418" y="456" width="98" height="44"/></g><g transform="translate(-166,-70) scale(1,1)"><path fill="none" stroke="#000000" d="M 418 456 L 516 456 L 516 500 L 418 500 L 418 456 Z Z" stroke-miterlimit="10"/></g><g transform="translate(-166,-70) scale(1,1)"><rect fill="#ffffff" stroke="none" x="408" y="463" width="20" height="10"/></g><g transform="translate(-166,-70) scale(1,1)"><path fill="none" stroke="#000000" d="M 408 463 L 428 463 L 428 473 L 408 473 L 408 463 Z Z" stroke-miterlimit="10"/></g><g transform="translate(-166,-70) scale(1,1)"><rect fill="#ffffff" stroke="none" x="408" y="483" width="20" height="10"/></g><g transform="translate(-166,-70) scale(1,1)"><path fill="none" stroke="#000000" d="M 408 483 L 428 483 L 428 493 L 408 493 L 408 483 Z Z" stroke-miterlimit="10"/></g><g transform="translate(-166,-70) scale(1,1)"><g><path fill="none" stroke="none"/><text fill="#000000" stroke="none" font-family="Arial" font-size="13px" font-style="normal" font-weight="bold" text-decoration="none" x="442" y="475.5">ctrl_find.js</text></g></g><g transform="translate(-166,-70) scale(1,1)"><path fill="none" stroke="#000000" d="M 288 268 L 288 472 M 288 472 A 8 8 0 0 0 296 480 L 408 480" stroke-miterlimit="10" stroke-dasharray="3"/></g><g transform="translate(-166,-70) scale(1,1)"><path fill="none" stroke="#000000" d="M 397.83732514237585 484.209517756016 L 408 480 L 397.83732514237585 475.790482243984" stroke-miterlimit="10"/></g><g transform="translate(-166,-70) scale(1,1)"><rect fill="#C0C0C0" stroke="none" x="425" y="511" width="98" height="44" opacity="0.2"/></g><g transform="translate(-166,-70) scale(1,1)"><rect fill="#ffffff" stroke="none" x="418" y="504" width="98" height="44"/></g><g transform="translate(-166,-70) scale(1,1)"><path fill="none" stroke="#000000" d="M 418 504 L 516 504 L 516 548 L 418 548 L 418 504 Z Z" stroke-miterlimit="10"/></g><g transform="translate(-166,-70) scale(1,1)"><rect fill="#ffffff" stroke="none" x="408" y="511" width="20" height="10"/></g><g transform="translate(-166,-70) scale(1,1)"><path fill="none" stroke="#000000" d="M 408 511 L 428 511 L 428 521 L 408 521 L 408 511 Z Z" stroke-miterlimit="10"/></g><g transform="translate(-166,-70) scale(1,1)"><rect fill="#ffffff" stroke="none" x="408" y="531" width="20" height="10"/></g><g transform="translate(-166,-70) scale(1,1)"><path fill="none" stroke="#000000" d="M 408 531 L 428 531 L 428 541 L 408 541 L 408 531 Z Z" stroke-miterlimit="10"/></g><g transform="translate(-166,-70) scale(1,1)"><g><path fill="none" stroke="none"/><text fill="#000000" stroke="none" font-family="Arial" font-size="13px" font-style="normal" font-weight="bold" text-decoration="none" x="440" y="523.5">ctrl_intro.js</text></g></g><g transform="translate(-166,-70) scale(1,1)"><path fill="none" stroke="#000000" d="M 276 268 L 276 520 M 276 520 A 8 8 0 0 0 284 528 L 408 528" stroke-miterlimit="10" stroke-dasharray="3"/></g><g transform="translate(-166,-70) scale(1,1)"><path fill="none" stroke="#000000" d="M 397.83732514237585 532.209517756016 L 408 528 L 397.83732514237585 523.790482243984" stroke-miterlimit="10"/></g><g transform="translate(-166,-70) scale(1,1)"><path fill="none" stroke="#000070" d="M 216 268 L 216 853 M 216 853 A 8 8 0 0 0 224 861 L 680 861" stroke-miterlimit="10" stroke-dasharray="3"/></g><g transform="translate(-166,-70) scale(1,1)"><path fill="none" stroke="#000070" d="M 669.8373251423759 865.209517756016 L 680 861 L 669.8373251423758 856.790482243984" stroke-miterlimit="10"/></g><g transform="translate(-166,-70) scale(1,1)"><rect fill="#C0C0C0" stroke="none" x="425" y="559" width="98" height="44" opacity="0.2"/></g><g transform="translate(-166,-70) scale(1,1)"><rect fill="#ffffff" stroke="none" x="418" y="552" width="98" height="44"/></g><g transform="translate(-166,-70) scale(1,1)"><path fill="none" stroke="#000000" d="M 418 552 L 516 552 L 516 596 L 418 596 L 418 552 Z Z" stroke-miterlimit="10"/></g><g transform="translate(-166,-70) scale(1,1)"><rect fill="#ffffff" stroke="none" x="408" y="559" width="20" height="10"/></g><g transform="translate(-166,-70) scale(1,1)"><path fill="none" stroke="#000000" d="M 408 559 L 428 559 L 428 569 L 408 569 L 408 559 Z Z" stroke-miterlimit="10"/></g><g transform="translate(-166,-70) scale(1,1)"><rect fill="#ffffff" stroke="none" x="408" y="579" width="20" height="10"/></g><g transform="translate(-166,-70) scale(1,1)"><path fill="none" stroke="#000000" d="M 408 579 L 428 579 L 428 589 L 408 589 L 408 579 Z Z" stroke-miterlimit="10"/></g><g transform="translate(-166,-70) scale(1,1)"><g><path fill="none" stroke="none"/><text fill="#000000" stroke="none" font-family="Arial" font-size="13px" font-style="normal" font-weight="bold" text-decoration="none" x="447" y="571.5">ctrl_map</text></g></g><g transform="translate(-166,-70) scale(1,1)"><path fill="none" stroke="#000000" d="M 516 528 L 616 528 M 616 528 A 8 8 0 0 1 624 536 L 624 717 M 624 717 A 8 8 0 0 0 632 725 L 712 725" stroke-miterlimit="10" stroke-dasharray="3"/></g><g transform="translate(-166,-70) scale(1,1)"><path fill="none" stroke="#000000" d="M 701.8373251423759 729.209517756016 L 712 725 L 701.8373251423758 720.790482243984" stroke-miterlimit="10"/></g><g transform="translate(-166,-70) scale(1,1)"><path fill="none" stroke="#000000" d="M 272 268 L 272 566 M 272 566 A 8 8 0 0 0 280 574 L 408 574" stroke-miterlimit="10" stroke-dasharray="3"/></g><g transform="translate(-166,-70) scale(1,1)"><path fill="none" stroke="#000000" d="M 397.83732514237585 578.209517756016 L 408 574 L 397.83732514237585 569.790482243984" stroke-miterlimit="10"/></g><g transform="translate(-166,-70) scale(1,1)"><path fill="none" stroke="#000000" d="M 516 576 L 600 576 M 600 576 A 8 8 0 0 1 608 584 L 608 877 M 608 877 A 8 8 0 0 0 616 885 L 680 885" stroke-miterlimit="10" stroke-dasharray="3"/></g><g transform="translate(-166,-70) scale(1,1)"><path fill="none" stroke="#000000" d="M 669.8373251423759 889.209517756016 L 680 885 L 669.8373251423758 880.790482243984" stroke-miterlimit="10"/></g><g transform="translate(-166,-70) scale(1,1)"><rect fill="#C0C0C0" stroke="none" x="425" y="607" width="98.62548828125" height="44" opacity="0.2"/></g><g transform="translate(-166,-70) scale(1,1)"><rect fill="#ffffff" stroke="none" x="418" y="600" width="98.62548828125" height="44"/></g><g transform="translate(-166,-70) scale(1,1)"><path fill="none" stroke="#000000" d="M 418 600 L 516.62548828125 600 L 516.62548828125 644 L 418 644 L 418 600 Z Z" stroke-miterlimit="10"/></g><g transform="translate(-166,-70) scale(1,1)"><rect fill="#ffffff" stroke="none" x="408" y="607" width="20" height="10"/></g><g transform="translate(-166,-70) scale(1,1)"><path fill="none" stroke="#000000" d="M 408 607 L 428 607 L 428 617 L 408 617 L 408 607 Z Z" stroke-miterlimit="10"/></g><g transform="translate(-166,-70) scale(1,1)"><rect fill="#ffffff" stroke="none" x="408" y="627" width="20" height="10"/></g><g transform="translate(-166,-70) scale(1,1)"><path fill="none" stroke="#000000" d="M 408 627 L 428 627 L 428 637 L 408 637 L 408 627 Z Z" stroke-miterlimit="10"/></g><g transform="translate(-166,-70) scale(1,1)"><g><path fill="none" stroke="none"/><text fill="#000000" stroke="none" font-family="Arial" font-size="13px" font-style="normal" font-weight="bold" text-decoration="none" x="439.312744140625" y="619.5">ctrl_login.js</text></g></g><g transform="translate(-166,-70) scale(1,1)"><path fill="none" stroke="#000070" d="M 263 268 L 263 614 M 263 614 A 8 8 0 0 0 271 622 L 408 622" stroke-miterlimit="10" stroke-dasharray="3"/></g><g transform="translate(-166,-70) scale(1,1)"><path fill="none" stroke="#000070" d="M 397.83732514237585 626.209517756016 L 408 622 L 397.83732514237585 617.790482243984" stroke-miterlimit="10"/></g><g transform="translate(-166,-70) scale(1,1)"><path fill="none" stroke="#000000" d="M 517 624 L 568 624 M 568 624 A 8 8 0 0 1 576 632 L 576 680 M 576 680 A 8 8 0 0 0 584 688 L 712 688" stroke-miterlimit="10" stroke-dasharray="3"/></g><g transform="translate(-166,-70) scale(1,1)"><path fill="none" stroke="#000000" d="M 701.8373251423759 692.209517756016 L 712 688 L 701.8373251423758 683.790482243984" stroke-miterlimit="10"/></g><g transform="translate(-166,-70) scale(1,1)"><path fill="none" stroke="#000000" d="M 495 455 L 758 269" stroke-miterlimit="10" stroke-dasharray="3"/></g><g transform="translate(-166,-70) scale(1,1)"><path fill="none" stroke="#000000" d="M 752.133306095127 278.30493968956944 L 758 269 L 747.272035003692 271.4312069097449" stroke-miterlimit="10"/></g><g transform="translate(-166,-70) scale(1,1)"><path fill="none" stroke="#000000" d="M 489 503 L 764 269" stroke-miterlimit="10" stroke-dasharray="3"/></g><g transform="translate(-166,-70) scale(1,1)"><path fill="none" stroke="#000000" d="M 758.9881108631996 278.79188272399244 L 764 269 L 753.5321525300948 272.37996587953165" stroke-miterlimit="10"/></g><g transform="translate(-166,-70) scale(1,1)"><path fill="none" stroke="#000000" d="M 485 551 L 768 269" stroke-miterlimit="10" stroke-dasharray="3"/></g><g transform="translate(-166,-70) scale(1,1)"><path fill="none" stroke="#000000" d="M 763.7725018303349 279.1552084776965 L 768 269 L 757.8298905978338 273.1915241557184" stroke-miterlimit="10"/></g></g></svg>