<svg version="1.1" xmlns="http://www.w3.org/2000/svg" xmlns:xlink="http://www.w3.org/1999/xlink" width="652" height="388"><defs/><g><g transform="translate(-46,-14) scale(1,1)"><g><path fill="none" stroke="none"/><text fill="#000000" stroke="none" font-family="Arial" font-size="22px" font-style="normal" font-weight="normal" text-decoration="none" x="61" y="51">Overview Bluemix Application</text></g></g><g transform="translate(-46,-14) scale(1,1)"><rect fill="#C0C0C0" stroke="none" x="479" y="111" width="86.39999999999998" height="15" opacity="0.2"/></g><g transform="translate(-46,-14) scale(1,1)"><rect fill="#C0C0C0" stroke="none" x="479" y="125" width="216" height="58" opacity="0.2"/></g><g transform="translate(-46,-14) scale(1,1)"><rect fill="#ffffff" stroke="none" x="472" y="119" width="216" height="57"/></g><g transform="translate(-46,-14) scale(1,1)"><path fill="none" stroke="#000000" d="M 472 119 L 688 119 L 688 176 L 472 176 L 472 119 Z Z" stroke-miterlimit="10"/></g><g transform="translate(-46,-14) scale(1,1)"><rect fill="#ffffff" stroke="none" x="472" y="104" width="86.39999999999998" height="15"/></g><g transform="translate(-46,-14) scale(1,1)"><path fill="none" stroke="#000000" d="M 472 104 L 558.4 104 L 558.4 119 L 472 119 L 472 104 Z Z" stroke-miterlimit="10"/></g><g transform="translate(-46,-14) scale(1,1)"><rect fill="#ffffff" stroke="none" x="472" y="118" width="216" height="58"/></g><g transform="translate(-46,-14) scale(1,1)"><path fill="none" stroke="#000000" d="M 472 118 L 688 118 L 688 176 L 472 176 L 472 118 Z Z" stroke-miterlimit="10"/></g><g transform="translate(-46,-14) scale(1,1)"><g><path fill="none" stroke="none"/><text fill="#000000" stroke="none" font-family="Arial" font-size="13px" font-style="normal" font-weight="normal" text-decoration="none" x="516.5" y="136.5">«Service on Bluemix»</text></g></g><g transform="translate(-46,-14) scale(1,1)"><g><path fill="none" stroke="none"/><text fill="#000000" stroke="none" font-family="Arial" font-size="13px" font-style="normal" font-weight="bold" text-decoration="none" x="554.5" y="151.5">Cloudant</text></g></g><g transform="translate(-46,-14) scale(1,1)"><rect fill="#C0C0C0" stroke="none" x="479" y="223" width="86.39999999999998" height="15" opacity="0.2"/></g><g transform="translate(-46,-14) scale(1,1)"><rect fill="#C0C0C0" stroke="none" x="479" y="237" width="216" height="58" opacity="0.2"/></g><g transform="translate(-46,-14) scale(1,1)"><rect fill="#ffffff" stroke="none" x="472" y="231" width="216" height="57"/></g><g transform="translate(-46,-14) scale(1,1)"><path fill="none" stroke="#000000" d="M 472 231 L 688 231 L 688 288 L 472 288 L 472 231 Z Z" stroke-miterlimit="10"/></g><g transform="translate(-46,-14) scale(1,1)"><rect fill="#ffffff" stroke="none" x="472" y="216" width="86.39999999999998" height="15"/></g><g transform="translate(-46,-14) scale(1,1)"><path fill="none" stroke="#000000" d="M 472 216 L 558.4 216 L 558.4 231 L 472 231 L 472 216 Z Z" stroke-miterlimit="10"/></g><g transform="translate(-46,-14) scale(1,1)"><rect fill="#ffffff" stroke="none" x="472" y="230" width="216" height="58"/></g><g transform="translate(-46,-14) scale(1,1)"><path fill="none" stroke="#000000" d="M 472 230 L 688 230 L 688 288 L 472 288 L 472 230 Z Z" stroke-miterlimit="10"/></g><g transform="translate(-46,-14) scale(1,1)"><g><path fill="none" stroke="none"/><text fill="#000000" stroke="none" font-family="Arial" font-size="13px" font-style="normal" font-weight="normal" text-decoration="none" x="516.5" y="248.5">«Service on Bluemix»</text></g></g><g transform="translate(-46,-14) scale(1,1)"><g><path fill="none" stroke="none"/><text fill="#000000" stroke="none" font-family="Arial" font-size="13px" font-style="normal" font-weight="bold" text-decoration="none" x="517.5" y="263.5">Watson Text2Speech</text></g></g><g transform="translate(-46,-14) scale(1,1)"><rect fill="#C0C0C0" stroke="none" x="63" y="215" width="76.80000000000001" height="15" opacity="0.2"/></g><g transform="translate(-46,-14) scale(1,1)"><rect fill="#C0C0C0" stroke="none" x="63" y="229" width="192" height="50" opacity="0.2"/></g><g transform="translate(-46,-14) scale(1,1)"><rect fill="#ffffff" stroke="none" x="56" y="223" width="192" height="49"/></g><g transform="translate(-46,-14) scale(1,1)"><path fill="none" stroke="#000000" d="M 56 223 L 248 223 L 248 272 L 56 272 L 56 223 Z Z" stroke-miterlimit="10"/></g><g transform="translate(-46,-14) scale(1,1)"><rect fill="#ffffff" stroke="none" x="56" y="208" width="76.80000000000001" height="15"/></g><g transform="translate(-46,-14) scale(1,1)"><path fill="none" stroke="#000000" d="M 56 208 L 132.8 208 L 132.8 223 L 56 223 L 56 208 Z Z" stroke-miterlimit="10"/></g><g transform="translate(-46,-14) scale(1,1)"><rect fill="#ffffff" stroke="none" x="56" y="222" width="192" height="50"/></g><g transform="translate(-46,-14) scale(1,1)"><path fill="none" stroke="#000000" d="M 56 222 L 248 222 L 248 272 L 56 272 L 56 222 Z Z" stroke-miterlimit="10"/></g><g transform="translate(-46,-14) scale(1,1)"><g><path fill="none" stroke="none"/><text fill="#000000" stroke="none" font-family="Arial" font-size="13px" font-style="normal" font-weight="bold" text-decoration="none" x="125.5" y="242.5">NodeRed</text></g></g><g transform="translate(-46,-14) scale(1,1)"><path fill="none" stroke="#000000" d="M 249 217 L 471 165" stroke-miterlimit="10" stroke-dasharray="3"/></g><g transform="translate(-46,-14) scale(1,1)"><path fill="none" stroke="#000000" d="M 462.06517315388913 171.41629715879938 L 471 165 L 460.1451161172924 163.21913057948242" stroke-miterlimit="10"/></g><g transform="translate(-46,-14) scale(1,1)"><path fill="none" stroke="#000000" d="M 249 243 L 471 249" stroke-miterlimit="10" stroke-dasharray="3"/></g><g transform="translate(-46,-14) scale(1,1)"><path fill="none" stroke="#000000" d="M 460.72730560446007 252.93341452885946 L 471 249 L 460.95476404528245 244.5174522184309" stroke-miterlimit="10"/></g><g transform="translate(-46,-14) scale(1,1)"><rect fill="#C0C0C0" stroke="none" x="479" y="327" width="86.39999999999998" height="15" opacity="0.2"/></g><g transform="translate(-46,-14) scale(1,1)"><rect fill="#C0C0C0" stroke="none" x="479" y="341" width="216" height="58" opacity="0.2"/></g><g transform="translate(-46,-14) scale(1,1)"><rect fill="#ffffff" stroke="none" x="472" y="335" width="216" height="57"/></g><g transform="translate(-46,-14) scale(1,1)"><path fill="none" stroke="#000000" d="M 472 335 L 688 335 L 688 392 L 472 392 L 472 335 Z Z" stroke-miterlimit="10"/></g><g transform="translate(-46,-14) scale(1,1)"><rect fill="#ffffff" stroke="none" x="472" y="320" width="86.39999999999998" height="15"/></g><g transform="translate(-46,-14) scale(1,1)"><path fill="none" stroke="#000000" d="M 472 320 L 558.4 320 L 558.4 335 L 472 335 L 472 320 Z Z" stroke-miterlimit="10"/></g><g transform="translate(-46,-14) scale(1,1)"><rect fill="#ffffff" stroke="none" x="472" y="334" width="216" height="58"/></g><g transform="translate(-46,-14) scale(1,1)"><path fill="none" stroke="#000000" d="M 472 334 L 688 334 L 688 392 L 472 392 L 472 334 Z Z" stroke-miterlimit="10"/></g><g transform="translate(-46,-14) scale(1,1)"><g><path fill="none" stroke="none"/><text fill="#000000" stroke="none" font-family="Arial" font-size="13px" font-style="normal" font-weight="normal" text-decoration="none" x="507" y="352.5">«Service on the Internet»</text></g></g><g transform="translate(-46,-14) scale(1,1)"><g><path fill="none" stroke="none"/><text fill="#000000" stroke="none" font-family="Arial" font-size="13px" font-style="normal" font-weight="bold" text-decoration="none" x="535.5" y="367.5">IoT  QuickStart</text></g></g><g transform="translate(-46,-14) scale(1,1)"><path fill="none" stroke="#000000" d="M 249 266 L 471 326" stroke-miterlimit="10" stroke-dasharray="3"/></g><g transform="translate(-46,-14) scale(1,1)"><path fill="none" stroke="#000000" d="M 460.0910245431576 327.4121807540146 L 471 326 L 462.2876268912442 319.284752066094" stroke-miterlimit="10"/></g></g></svg>