<svg version="1.1" xmlns="http://www.w3.org/2000/svg" xmlns:xlink="http://www.w3.org/1999/xlink" width="741.99658203125" height="224"><defs/><g><g transform="translate(-6,-38) scale(1,1)"><path fill="#C0C0C0" stroke="none" d="M 231 225 L 332.44091796875 225 L 332.44091796875 258 L 231 258" opacity="0.2"/></g><g transform="translate(-6,-38) scale(1,1)"><path fill="#C0C0C0" stroke="none" d="M 231 225 L 241 215 L 342.44091796875 215 L 332.44091796875 225" opacity="0.2"/></g><g transform="translate(-6,-38) scale(1,1)"><path fill="#C0C0C0" stroke="none" d="M 342.44091796875 215 L 332.44091796875 225 L 332.44091796875 258 L 342.44091796875 248" opacity="0.2"/></g><g transform="translate(-6,-38) scale(1,1)"><path fill="#ffffff" stroke="none" d="M 224 218 L 325.44091796875 218 L 325.44091796875 251 L 224 251"/></g><g transform="translate(-6,-38) scale(1,1)"><path fill="#ffffff" stroke="none" d="M 224 218 L 234 208 L 335.44091796875 208 L 325.44091796875 218"/></g><g transform="translate(-6,-38) scale(1,1)"><path fill="#ffffff" stroke="none" d="M 335.44091796875 208 L 325.44091796875 218 L 325.44091796875 251 L 335.44091796875 241"/></g><g transform="translate(-6,-38) scale(1,1)"><path fill="none" stroke="#000000" d="M 224 218 L 325.44091796875 218 L 325.44091796875 251 L 224 251 L 224 218" stroke-miterlimit="10"/></g><g transform="translate(-6,-38) scale(1,1)"><path fill="none" stroke="#000000" d="M 224 218 L 234 208 L 335.44091796875 208 L 325.44091796875 218 L 224 218" stroke-miterlimit="10"/></g><g transform="translate(-6,-38) scale(1,1)"><path fill="none" stroke="#000000" d="M 335.44091796875 208 L 325.44091796875 218 L 325.44091796875 251 L 335.44091796875 241 L 335.44091796875 208" stroke-miterlimit="10"/></g><g transform="translate(-6,-38) scale(1,1)"><g><path fill="none" stroke="none"/><text fill="#000000" stroke="none" font-family="Arial" font-size="13px" font-style="normal" font-weight="bold" text-decoration="none" x="234.220458984375" y="237.5">Mobile Device</text></g></g><g transform="translate(-6,-38) scale(1,1)"><path fill="#C0C0C0" stroke="none" d="M 231 137 L 324 137 L 324 174 L 231 174" opacity="0.2"/></g><g transform="translate(-6,-38) scale(1,1)"><path fill="#C0C0C0" stroke="none" d="M 231 137 L 241 127 L 334 127 L 324 137" opacity="0.2"/></g><g transform="translate(-6,-38) scale(1,1)"><path fill="#C0C0C0" stroke="none" d="M 334 127 L 324 137 L 324 174 L 334 164" opacity="0.2"/></g><g transform="translate(-6,-38) scale(1,1)"><path fill="#ffffff" stroke="none" d="M 224 130 L 317 130 L 317 167 L 224 167"/></g><g transform="translate(-6,-38) scale(1,1)"><path fill="#ffffff" stroke="none" d="M 224 130 L 234 120 L 327 120 L 317 130"/></g><g transform="translate(-6,-38) scale(1,1)"><path fill="#ffffff" stroke="none" d="M 327 120 L 317 130 L 317 167 L 327 157"/></g><g transform="translate(-6,-38) scale(1,1)"><path fill="none" stroke="#000000" d="M 224 130 L 317 130 L 317 167 L 224 167 L 224 130" stroke-miterlimit="10"/></g><g transform="translate(-6,-38) scale(1,1)"><path fill="none" stroke="#000000" d="M 224 130 L 234 120 L 327 120 L 317 130 L 224 130" stroke-miterlimit="10"/></g><g transform="translate(-6,-38) scale(1,1)"><path fill="none" stroke="#000000" d="M 327 120 L 317 130 L 317 167 L 327 157 L 327 120" stroke-miterlimit="10"/></g><g transform="translate(-6,-38) scale(1,1)"><g><path fill="none" stroke="none"/><text fill="#000000" stroke="none" font-family="Arial" font-size="13px" font-style="normal" font-weight="bold" text-decoration="none" x="251.5" y="149.5">Laptop</text></g></g><g transform="translate(-6,-38) scale(1,1)"><path fill="#C0C0C0" stroke="none" d="M 447 137 L 532 137 L 532 170 L 447 170" opacity="0.2"/></g><g transform="translate(-6,-38) scale(1,1)"><path fill="#C0C0C0" stroke="none" d="M 447 137 L 457 127 L 542 127 L 532 137" opacity="0.2"/></g><g transform="translate(-6,-38) scale(1,1)"><path fill="#C0C0C0" stroke="none" d="M 542 127 L 532 137 L 532 170 L 542 160" opacity="0.2"/></g><g transform="translate(-6,-38) scale(1,1)"><path fill="#ffffff" stroke="none" d="M 440 130 L 525 130 L 525 163 L 440 163"/></g><g transform="translate(-6,-38) scale(1,1)"><path fill="#ffffff" stroke="none" d="M 440 130 L 450 120 L 535 120 L 525 130"/></g><g transform="translate(-6,-38) scale(1,1)"><path fill="#ffffff" stroke="none" d="M 535 120 L 525 130 L 525 163 L 535 153"/></g><g transform="translate(-6,-38) scale(1,1)"><path fill="none" stroke="#000000" d="M 440 130 L 525 130 L 525 163 L 440 163 L 440 130" stroke-miterlimit="10"/></g><g transform="translate(-6,-38) scale(1,1)"><path fill="none" stroke="#000000" d="M 440 130 L 450 120 L 535 120 L 525 130 L 440 130" stroke-miterlimit="10"/></g><g transform="translate(-6,-38) scale(1,1)"><path fill="none" stroke="#000000" d="M 535 120 L 525 130 L 525 163 L 535 153 L 535 120" stroke-miterlimit="10"/></g><g transform="translate(-6,-38) scale(1,1)"><g><path fill="none" stroke="none"/><text fill="#000000" stroke="none" font-family="Arial" font-size="13px" font-style="normal" font-weight="bold" text-decoration="none" x="459.5" y="149.5">Bluemix</text></g></g><g transform="translate(-6,-38) scale(1,1)"><path fill="#C0C0C0" stroke="none" d="M 447 225 L 532 225 L 532 258 L 447 258" opacity="0.2"/></g><g transform="translate(-6,-38) scale(1,1)"><path fill="#C0C0C0" stroke="none" d="M 447 225 L 457 215 L 542 215 L 532 225" opacity="0.2"/></g><g transform="translate(-6,-38) scale(1,1)"><path fill="#C0C0C0" stroke="none" d="M 542 215 L 532 225 L 532 258 L 542 248" opacity="0.2"/></g><g transform="translate(-6,-38) scale(1,1)"><path fill="#ffffff" stroke="none" d="M 440 218 L 525 218 L 525 251 L 440 251"/></g><g transform="translate(-6,-38) scale(1,1)"><path fill="#ffffff" stroke="none" d="M 440 218 L 450 208 L 535 208 L 525 218"/></g><g transform="translate(-6,-38) scale(1,1)"><path fill="#ffffff" stroke="none" d="M 535 208 L 525 218 L 525 251 L 535 241"/></g><g transform="translate(-6,-38) scale(1,1)"><path fill="none" stroke="#000000" d="M 440 218 L 525 218 L 525 251 L 440 251 L 440 218" stroke-miterlimit="10"/></g><g transform="translate(-6,-38) scale(1,1)"><path fill="none" stroke="#000000" d="M 440 218 L 450 208 L 535 208 L 525 218 L 440 218" stroke-miterlimit="10"/></g><g transform="translate(-6,-38) scale(1,1)"><path fill="none" stroke="#000000" d="M 535 208 L 525 218 L 525 251 L 535 241 L 535 208" stroke-miterlimit="10"/></g><g transform="translate(-6,-38) scale(1,1)"><g><path fill="none" stroke="none"/><text fill="#000000" stroke="none" font-family="Arial" font-size="13px" font-style="normal" font-weight="bold" text-decoration="none" x="455" y="237.5">IoT Cloud</text></g></g><g transform="translate(-6,-38) scale(1,1)"><path fill="#C0C0C0" stroke="none" d="M 647 137 L 733.99658203125 137 L 733.99658203125 170 L 647 170" opacity="0.2"/></g><g transform="translate(-6,-38) scale(1,1)"><path fill="#C0C0C0" stroke="none" d="M 647 137 L 657 127 L 743.99658203125 127 L 733.99658203125 137" opacity="0.2"/></g><g transform="translate(-6,-38) scale(1,1)"><path fill="#C0C0C0" stroke="none" d="M 743.99658203125 127 L 733.99658203125 137 L 733.99658203125 170 L 743.99658203125 160" opacity="0.2"/></g><g transform="translate(-6,-38) scale(1,1)"><path fill="#ffffff" stroke="none" d="M 640 130 L 726.99658203125 130 L 726.99658203125 163 L 640 163"/></g><g transform="translate(-6,-38) scale(1,1)"><path fill="#ffffff" stroke="none" d="M 640 130 L 650 120 L 736.99658203125 120 L 726.99658203125 130"/></g><g transform="translate(-6,-38) scale(1,1)"><path fill="#ffffff" stroke="none" d="M 736.99658203125 120 L 726.99658203125 130 L 726.99658203125 163 L 736.99658203125 153"/></g><g transform="translate(-6,-38) scale(1,1)"><path fill="none" stroke="#000000" d="M 640 130 L 726.99658203125 130 L 726.99658203125 163 L 640 163 L 640 130" stroke-miterlimit="10"/></g><g transform="translate(-6,-38) scale(1,1)"><path fill="none" stroke="#000000" d="M 640 130 L 650 120 L 736.99658203125 120 L 726.99658203125 130 L 640 130" stroke-miterlimit="10"/></g><g transform="translate(-6,-38) scale(1,1)"><path fill="none" stroke="#000000" d="M 736.99658203125 120 L 726.99658203125 130 L 726.99658203125 163 L 736.99658203125 153 L 736.99658203125 120" stroke-miterlimit="10"/></g><g transform="translate(-6,-38) scale(1,1)"><g><path fill="none" stroke="none"/><text fill="#000000" stroke="none" font-family="Arial" font-size="13px" font-style="normal" font-weight="bold" text-decoration="none" x="648.498291015625" y="149.5">SampleData</text></g></g><g transform="translate(-6,-38) scale(1,1)"><path fill="#C0C0C0" stroke="none" d="M 23 225 L 108 225 L 108 258 L 23 258" opacity="0.2"/></g><g transform="translate(-6,-38) scale(1,1)"><path fill="#C0C0C0" stroke="none" d="M 23 225 L 33 215 L 118 215 L 108 225" opacity="0.2"/></g><g transform="translate(-6,-38) scale(1,1)"><path fill="#C0C0C0" stroke="none" d="M 118 215 L 108 225 L 108 258 L 118 248" opacity="0.2"/></g><g transform="translate(-6,-38) scale(1,1)"><path fill="#ffffff" stroke="none" d="M 16 218 L 101 218 L 101 251 L 16 251"/></g><g transform="translate(-6,-38) scale(1,1)"><path fill="#ffffff" stroke="none" d="M 16 218 L 26 208 L 111 208 L 101 218"/></g><g transform="translate(-6,-38) scale(1,1)"><path fill="#ffffff" stroke="none" d="M 111 208 L 101 218 L 101 251 L 111 241"/></g><g transform="translate(-6,-38) scale(1,1)"><path fill="none" stroke="#000000" d="M 16 218 L 101 218 L 101 251 L 16 251 L 16 218" stroke-miterlimit="10"/></g><g transform="translate(-6,-38) scale(1,1)"><path fill="none" stroke="#000000" d="M 16 218 L 26 208 L 111 208 L 101 218 L 16 218" stroke-miterlimit="10"/></g><g transform="translate(-6,-38) scale(1,1)"><path fill="none" stroke="#000000" d="M 111 208 L 101 218 L 101 251 L 111 241 L 111 208" stroke-miterlimit="10"/></g><g transform="translate(-6,-38) scale(1,1)"><g><path fill="none" stroke="none"/><text fill="#000000" stroke="none" font-family="Arial" font-size="13px" font-style="normal" font-weight="bold" text-decoration="none" x="38.5" y="237.5">Sensor</text></g></g><g transform="translate(-6,-38) scale(1,1)"><path fill="none" stroke="#000000" d="M 113 230 L 223 230" stroke-miterlimit="10"/></g><g transform="translate(-6,-38) scale(1,1)"><g><path fill="none" stroke="none"/><text fill="#000000" stroke="none" font-family="Arial" font-size="13px" font-style="normal" font-weight="normal" text-decoration="none" x="138" y="222">+bluetooth</text></g></g><g transform="translate(-6,-38) scale(1,1)"><path fill="none" stroke="#000000" d="M 329 144 L 439 142" stroke-miterlimit="10"/></g><g transform="translate(-6,-38) scale(1,1)"><path fill="none" stroke="#000000" d="M 337 230 L 439 230" stroke-miterlimit="10"/></g><g transform="translate(-6,-38) scale(1,1)"><g><path fill="none" stroke="none"/><text fill="#000000" stroke="none" font-family="Arial" font-size="13px" font-style="normal" font-weight="normal" text-decoration="none" x="363" y="222">+internet</text></g></g><g transform="translate(-6,-38) scale(1,1)"><path fill="none" stroke="#000000" d="M 334 207 L 439 163" stroke-miterlimit="10"/></g><g transform="translate(-6,-38) scale(1,1)"><g><path fill="none" stroke="none"/><text fill="#000000" stroke="none" font-family="Arial" font-size="13px" font-style="normal" font-weight="normal" text-decoration="none" x="355" y="178">+internet</text></g></g><g transform="translate(-6,-38) scale(1,1)"><path fill="none" stroke="#000000" d="M 488 165 L 488 207" stroke-miterlimit="10"/></g><g transform="translate(-6,-38) scale(1,1)"><g><path fill="none" stroke="none"/><text fill="#000000" stroke="none" font-family="Arial" font-size="13px" font-style="normal" font-weight="normal" text-decoration="none" x="504" y="192">+internet</text></g></g><g transform="translate(-6,-38) scale(1,1)"><path fill="none" stroke="#000000" d="M 537 142 L 639 142" stroke-miterlimit="10"/></g><g transform="translate(-6,-38) scale(1,1)"><g><path fill="none" stroke="none"/><text fill="#000000" stroke="none" font-family="Arial" font-size="22px" font-style="normal" font-weight="normal" text-decoration="none" x="61" y="75">Overview Deployment</text></g></g><g transform="translate(-6,-38) scale(1,1)"><path fill="none" stroke="#000000" d="M 329 144 L 439 142" stroke-miterlimit="10"/></g><g transform="translate(-6,-38) scale(1,1)"><path fill="none" stroke="#000000" d="M 277 169 L 279 207" stroke-miterlimit="10"/></g><g transform="translate(-6,-38) scale(1,1)"><g><path fill="none" stroke="none"/><text fill="#000000" stroke="none" font-family="Arial" font-size="13px" font-style="normal" font-weight="normal" text-decoration="none" x="154" y="196">+internet or wired</text></g></g></g></svg>